<?xml version="1.0" encoding="UTF-8" standalone="no"?>
<!DOCTYPE svg PUBLIC "-//W3C//DTD SVG 1.1//EN" "http://www.w3.org/Graphics/SVG/1.1/DTD/svg11.dtd">
<svg version="1.1" xmlns="http://www.w3.org/2000/svg" xmlns:xl="http://www.w3.org/1999/xlink" xmlns:dc="http://purl.org/dc/elements/1.1/" viewBox="0 0 1040.32 649.16" width="1040.32" height="649.16">
  <defs>
    <linearGradient x1="0" x2="1" id="Gradient" gradientUnits="userSpaceOnUse">
      <stop offset="0" stop-color="gray" stop-opacity=".25"/>
      <stop offset=".54" stop-color="gray" stop-opacity=".12"/>
      <stop offset="1" stop-color="gray" stop-opacity=".1"/>
    </linearGradient>
    <linearGradient id="Obj_Gradient" xl:href="#Gradient" gradientTransform="translate(722.82 71.75) rotate(-90) scale(44.18)"/>
    <linearGradient id="Obj_Gradient_2" xl:href="#Gradient" gradientTransform="translate(805.7832 602.91) rotate(-90) scale(602.92364)"/>
  </defs>
  <metadata> Produced by OmniGraffle 7.17.1\n2020-07-28 08:33:03 +0000</metadata>
  <g id="Canvas_1" stroke="none" stroke-dasharray="none" fill="none" fill-opacity="1" stroke-opacity="1">
    <title>Canvas 1</title>
    <rect fill="#f7f7f7" x="0" y="0" width="1040.32" height="649.16"/>
    <g id="Canvas_1_Layer_1">
      <title>Layer 1</title>
      <g id="Graphic_2">
        <path d="M 169.16 408.16 L 254.48 408.16 C 259.3622 408.16 263.32 412.1178 263.32 417 L 263.32 440.32 C 263.32 445.2022 259.3622 449.16 254.48 449.16 L 169.16 449.16 C 164.2778 449.16 160.32 445.2022 160.32 440.32 L 160.32 417 C 160.32 412.1178 164.2778 408.16 169.16 408.16 Z" fill="#c41800" fill-opacity=".8533818"/>
      </g>
      <g id="Graphic_3">
        <path d="M 272.16 408.16 L 357.48 408.16 C 362.3622 408.16 366.32 412.1178 366.32 417 L 366.32 440.32 C 366.32 445.2022 362.3622 449.16 357.48 449.16 L 272.16 449.16 C 267.2778 449.16 263.32 445.2022 263.32 440.32 L 263.32 417 C 263.32 412.1178 267.2778 408.16 272.16 408.16 Z" fill="#6c63ff"/>
      </g>
      <g id="Graphic_4">
        <path d="M 272.16 408.16 L 357.48 408.16 C 362.3622 408.16 366.32 412.1178 366.32 417 L 366.32 440.32 C 366.32 445.2022 362.3622 449.16 357.48 449.16 L 272.16 449.16 C 267.2778 449.16 263.32 445.2022 263.32 440.32 L 263.32 417 C 263.32 412.1178 267.2778 408.16 272.16 408.16 Z" fill="#961800"/>
      </g>
      <g id="Graphic_5">
        <path d="M 375.16 408.16 L 460.48 408.16 C 465.3622 408.16 469.32 412.1178 469.32 417 L 469.32 440.32 C 469.32 445.2022 465.3622 449.16 460.48 449.16 L 375.16 449.16 C 370.2778 449.16 366.32 445.2022 366.32 440.32 L 366.32 417 C 366.32 412.1178 370.2778 408.16 375.16 408.16 Z" fill="#c41800" fill-opacity=".8533818"/>
      </g>
      <g id="Graphic_6">
        <path d="M 478.16 408.16 L 563.48 408.16 C 568.3622 408.16 572.32 412.1178 572.32 417 L 572.32 440.32 C 572.32 445.2022 568.3622 449.16 563.48 449.16 L 478.16 449.16 C 473.2778 449.16 469.32 445.2022 469.32 440.32 L 469.32 417 C 469.32 412.1178 473.2778 408.16 478.16 408.16 Z" fill="#6c63ff"/>
      </g>
      <g id="Graphic_7">
        <path d="M 478.16 408.16 L 563.48 408.16 C 568.3622 408.16 572.32 412.1178 572.32 417 L 572.32 440.32 C 572.32 445.2022 568.3622 449.16 563.48 449.16 L 478.16 449.16 C 473.2778 449.16 469.32 445.2022 469.32 440.32 L 469.32 417 C 469.32 412.1178 473.2778 408.16 478.16 408.16 Z" fill="#961800"/>
      </g>
      <g id="Graphic_8">
        <path d="M 581.16 408.16 L 666.48 408.16 C 671.3622 408.16 675.32 412.1178 675.32 417 L 675.32 440.32 C 675.32 445.2022 671.3622 449.16 666.48 449.16 L 581.16 449.16 C 576.2778 449.16 572.32 445.2022 572.32 440.32 L 572.32 417 C 572.32 412.1178 576.2778 408.16 581.16 408.16 Z" fill="#c41800" fill-opacity=".8533818"/>
      </g>
      <g id="Graphic_9">
        <path d="M 684.16 408.16 L 769.48 408.16 C 774.3622 408.16 778.32 412.1178 778.32 417 L 778.32 440.32 C 778.32 445.2022 774.3622 449.16 769.48 449.16 L 684.16 449.16 C 679.2778 449.16 675.32 445.2022 675.32 440.32 L 675.32 417 C 675.32 412.1178 679.2778 408.16 684.16 408.16 Z" fill="#6c63ff"/>
      </g>
      <g id="Graphic_10">
        <path d="M 684.16 408.16 L 769.48 408.16 C 774.3622 408.16 778.32 412.1178 778.32 417 L 778.32 440.32 C 778.32 445.2022 774.3622 449.16 769.48 449.16 L 684.16 449.16 C 679.2778 449.16 675.32 445.2022 675.32 440.32 L 675.32 417 C 675.32 412.1178 679.2778 408.16 684.16 408.16 Z" fill="#961800"/>
      </g>
      <g id="Graphic_11">
        <path d="M 769.48 408.16 L 684.16 408.16 C 679.2778 408.16 675.32 404.2022 675.32 399.32 L 675.32 376 C 675.32 371.1178 679.2778 367.16 684.16 367.16 L 769.48 367.16 C 774.3622 367.16 778.32 371.1178 778.32 376 L 778.32 399.32 C 778.32 404.2022 774.3622 408.16 769.48 408.16 Z" fill="#c41800" fill-opacity=".8533818"/>
      </g>
      <g id="Graphic_12">
        <path d="M 666.48 408.16 L 581.16 408.16 C 576.2778 408.16 572.32 404.2022 572.32 399.32 L 572.32 376 C 572.32 371.1178 576.2778 367.16 581.16 367.16 L 666.48 367.16 C 671.3622 367.16 675.32 371.1178 675.32 376 L 675.32 399.32 C 675.32 404.2022 671.3622 408.16 666.48 408.16 Z" fill="#6c63ff"/>
      </g>
      <g id="Graphic_13">
        <path d="M 666.48 408.16 L 581.16 408.16 C 576.2778 408.16 572.32 404.2022 572.32 399.32 L 572.32 376 C 572.32 371.1178 576.2778 367.16 581.16 367.16 L 666.48 367.16 C 671.3622 367.16 675.32 371.1178 675.32 376 L 675.32 399.32 C 675.32 404.2022 671.3622 408.16 666.48 408.16 Z" fill="#961800"/>
      </g>
      <g id="Graphic_14">
        <path d="M 563.48 408.16 L 478.16 408.16 C 473.2778 408.16 469.32 404.2022 469.32 399.32 L 469.32 376 C 469.32 371.1178 473.2778 367.16 478.16 367.16 L 563.48 367.16 C 568.3622 367.16 572.32 371.1178 572.32 376 L 572.32 399.32 C 572.32 404.2022 568.3622 408.16 563.48 408.16 Z" fill="#c41800" fill-opacity=".8533818"/>
      </g>
      <g id="Graphic_15">
        <path d="M 460.48 408.16 L 375.16 408.16 C 370.2778 408.16 366.32 404.2022 366.32 399.32 L 366.32 376 C 366.32 371.1178 370.2778 367.16 375.16 367.16 L 460.48 367.16 C 465.3622 367.16 469.32 371.1178 469.32 376 L 469.32 399.32 C 469.32 404.2022 465.3622 408.16 460.48 408.16 Z" fill="#6c63ff"/>
      </g>
      <g id="Graphic_16">
        <path d="M 460.48 408.16 L 375.16 408.16 C 370.2778 408.16 366.32 404.2022 366.32 399.32 L 366.32 376 C 366.32 371.1178 370.2778 367.16 375.16 367.16 L 460.48 367.16 C 465.3622 367.16 469.32 371.1178 469.32 376 L 469.32 399.32 C 469.32 404.2022 465.3622 408.16 460.48 408.16 Z" fill="#961800"/>
      </g>
      <g id="Graphic_17">
        <path d="M 357.48 408.16 L 272.16 408.16 C 267.2778 408.16 263.32 404.2022 263.32 399.32 L 263.32 376 C 263.32 371.1178 267.2778 367.16 272.16 367.16 L 357.48 367.16 C 362.3622 367.16 366.32 371.1178 366.32 376 L 366.32 399.32 C 366.32 404.2022 362.3622 408.16 357.48 408.16 Z" fill="#c41800" fill-opacity=".8533818"/>
      </g>
      <g id="Graphic_18">
        <path d="M 254.48 408.16 L 169.16 408.16 C 164.2778 408.16 160.32 404.2022 160.32 399.32 L 160.32 376 C 160.32 371.1178 164.2778 367.16 169.16 367.16 L 254.48 367.16 C 259.3622 367.16 263.32 371.1178 263.32 376 L 263.32 399.32 C 263.32 404.2022 259.3622 408.16 254.48 408.16 Z" fill="#6c63ff"/>
      </g>
      <g id="Graphic_19">
        <path d="M 254.48 408.16 L 169.16 408.16 C 164.2778 408.16 160.32 404.2022 160.32 399.32 L 160.32 376 C 160.32 371.1178 164.2778 367.16 169.16 367.16 L 254.48 367.16 C 259.3622 367.16 263.32 371.1178 263.32 376 L 263.32 399.32 C 263.32 404.2022 259.3622 408.16 254.48 408.16 Z" fill="#961800"/>
      </g>
      <g id="Graphic_20">
        <path d="M 169.16 326.16 L 254.48 326.16 C 259.3622 326.16 263.32 330.1178 263.32 335 L 263.32 358.32 C 263.32 363.2022 259.3622 367.16 254.48 367.16 L 169.16 367.16 C 164.2778 367.16 160.32 363.2022 160.32 358.32 L 160.32 335 C 160.32 330.1178 164.2778 326.16 169.16 326.16 Z" fill="#c41800" fill-opacity=".8533818"/>
      </g>
      <g id="Graphic_21">
        <path d="M 272.16 326.16 L 357.48 326.16 C 362.3622 326.16 366.32 330.1178 366.32 335 L 366.32 358.32 C 366.32 363.2022 362.3622 367.16 357.48 367.16 L 272.16 367.16 C 267.2778 367.16 263.32 363.2022 263.32 358.32 L 263.32 335 C 263.32 330.1178 267.2778 326.16 272.16 326.16 Z" fill="#6c63ff"/>
      </g>
      <g id="Graphic_22">
        <path d="M 272.16 326.16 L 357.48 326.16 C 362.3622 326.16 366.32 330.1178 366.32 335 L 366.32 358.32 C 366.32 363.2022 362.3622 367.16 357.48 367.16 L 272.16 367.16 C 267.2778 367.16 263.32 363.2022 263.32 358.32 L 263.32 335 C 263.32 330.1178 267.2778 326.16 272.16 326.16 Z" fill="#961800"/>
      </g>
      <g id="Graphic_23">
        <path d="M 375.16 326.16 L 460.48 326.16 C 465.3622 326.16 469.32 330.1178 469.32 335 L 469.32 358.32 C 469.32 363.2022 465.3622 367.16 460.48 367.16 L 375.16 367.16 C 370.2778 367.16 366.32 363.2022 366.32 358.32 L 366.32 335 C 366.32 330.1178 370.2778 326.16 375.16 326.16 Z" fill="#c41800" fill-opacity=".8533818"/>
      </g>
      <g id="Graphic_24">
        <path d="M 478.16 326.16 L 563.48 326.16 C 568.3622 326.16 572.32 330.1178 572.32 335 L 572.32 358.32 C 572.32 363.2022 568.3622 367.16 563.48 367.16 L 478.16 367.16 C 473.2778 367.16 469.32 363.2022 469.32 358.32 L 469.32 335 C 469.32 330.1178 473.2778 326.16 478.16 326.16 Z" fill="#6c63ff"/>
      </g>
      <g id="Graphic_25">
        <path d="M 478.16 326.16 L 563.48 326.16 C 568.3622 326.16 572.32 330.1178 572.32 335 L 572.32 358.32 C 572.32 363.2022 568.3622 367.16 563.48 367.16 L 478.16 367.16 C 473.2778 367.16 469.32 363.2022 469.32 358.32 L 469.32 335 C 469.32 330.1178 473.2778 326.16 478.16 326.16 Z" fill="#961800"/>
      </g>
      <g id="Graphic_26">
        <path d="M 581.16 326.16 L 666.48 326.16 C 671.3622 326.16 675.32 330.1178 675.32 335 L 675.32 358.32 C 675.32 363.2022 671.3622 367.16 666.48 367.16 L 581.16 367.16 C 576.2778 367.16 572.32 363.2022 572.32 358.32 L 572.32 335 C 572.32 330.1178 576.2778 326.16 581.16 326.16 Z" fill="#c41800" fill-opacity=".8533818"/>
      </g>
      <g id="Graphic_27">
        <path d="M 684.16 326.16 L 769.48 326.16 C 774.3622 326.16 778.32 330.1178 778.32 335 L 778.32 358.32 C 778.32 363.2022 774.3622 367.16 769.48 367.16 L 684.16 367.16 C 679.2778 367.16 675.32 363.2022 675.32 358.32 L 675.32 335 C 675.32 330.1178 679.2778 326.16 684.16 326.16 Z" fill="#6c63ff"/>
      </g>
      <g id="Graphic_28">
        <path d="M 684.16 326.16 L 769.48 326.16 C 774.3622 326.16 778.32 330.1178 778.32 335 L 778.32 358.32 C 778.32 363.2022 774.3622 367.16 769.48 367.16 L 684.16 367.16 C 679.2778 367.16 675.32 363.2022 675.32 358.32 L 675.32 335 C 675.32 330.1178 679.2778 326.16 684.16 326.16 Z" fill="#961800"/>
      </g>
      <g id="Graphic_29">
        <path d="M 769.48 326.16 L 684.16 326.16 C 679.2778 326.16 675.32 322.2022 675.32 317.32 L 675.32 294 C 675.32 289.1178 679.2778 285.16 684.16 285.16 L 769.48 285.16 C 774.3622 285.16 778.32 289.1178 778.32 294 L 778.32 317.32 C 778.32 322.2022 774.3622 326.16 769.48 326.16 Z" fill="#c41800" fill-opacity=".8533818"/>
      </g>
      <g id="Graphic_30">
        <path d="M 666.48 326.16 L 581.16 326.16 C 576.2778 326.16 572.32 322.2022 572.32 317.32 L 572.32 294 C 572.32 289.1178 576.2778 285.16 581.16 285.16 L 666.48 285.16 C 671.3622 285.16 675.32 289.1178 675.32 294 L 675.32 317.32 C 675.32 322.2022 671.3622 326.16 666.48 326.16 Z" fill="#6c63ff"/>
      </g>
      <g id="Graphic_31">
        <path d="M 666.48 326.16 L 581.16 326.16 C 576.2778 326.16 572.32 322.2022 572.32 317.32 L 572.32 294 C 572.32 289.1178 576.2778 285.16 581.16 285.16 L 666.48 285.16 C 671.3622 285.16 675.32 289.1178 675.32 294 L 675.32 317.32 C 675.32 322.2022 671.3622 326.16 666.48 326.16 Z" fill="#961800"/>
      </g>
      <g id="Graphic_32">
        <path d="M 563.48 326.16 L 478.16 326.16 C 473.2778 326.16 469.32 322.2022 469.32 317.32 L 469.32 294 C 469.32 289.1178 473.2778 285.16 478.16 285.16 L 563.48 285.16 C 568.3622 285.16 572.32 289.1178 572.32 294 L 572.32 317.32 C 572.32 322.2022 568.3622 326.16 563.48 326.16 Z" fill="#c41800" fill-opacity=".8533818"/>
      </g>
      <g id="Graphic_33">
        <path d="M 460.48 326.16 L 375.16 326.16 C 370.2778 326.16 366.32 322.2022 366.32 317.32 L 366.32 294 C 366.32 289.1178 370.2778 285.16 375.16 285.16 L 460.48 285.16 C 465.3622 285.16 469.32 289.1178 469.32 294 L 469.32 317.32 C 469.32 322.2022 465.3622 326.16 460.48 326.16 Z" fill="#6c63ff"/>
      </g>
      <g id="Graphic_34">
        <path d="M 460.48 326.16 L 375.16 326.16 C 370.2778 326.16 366.32 322.2022 366.32 317.32 L 366.32 294 C 366.32 289.1178 370.2778 285.16 375.16 285.16 L 460.48 285.16 C 465.3622 285.16 469.32 289.1178 469.32 294 L 469.32 317.32 C 469.32 322.2022 465.3622 326.16 460.48 326.16 Z" fill="#961800"/>
      </g>
      <g id="Graphic_35">
        <path d="M 357.48 326.16 L 272.16 326.16 C 267.2778 326.16 263.32 322.2022 263.32 317.32 L 263.32 294 C 263.32 289.1178 267.2778 285.16 272.16 285.16 L 357.48 285.16 C 362.3622 285.16 366.32 289.1178 366.32 294 L 366.32 317.32 C 366.32 322.2022 362.3622 326.16 357.48 326.16 Z" fill="#c41800" fill-opacity=".8533818"/>
      </g>
      <g id="Graphic_36">
        <path d="M 254.48 326.16 L 169.16 326.16 C 164.2778 326.16 160.32 322.2022 160.32 317.32 L 160.32 294 C 160.32 289.1178 164.2778 285.16 169.16 285.16 L 254.48 285.16 C 259.3622 285.16 263.32 289.1178 263.32 294 L 263.32 317.32 C 263.32 322.2022 259.3622 326.16 254.48 326.16 Z" fill="#6c63ff"/>
      </g>
      <g id="Graphic_37">
        <path d="M 254.48 326.16 L 169.16 326.16 C 164.2778 326.16 160.32 322.2022 160.32 317.32 L 160.32 294 C 160.32 289.1178 164.2778 285.16 169.16 285.16 L 254.48 285.16 C 259.3622 285.16 263.32 289.1178 263.32 294 L 263.32 317.32 C 263.32 322.2022 259.3622 326.16 254.48 326.16 Z" fill="#961800"/>
      </g>
      <g id="Graphic_38">
        <path d="M 169.16 246.16 L 254.48 246.16 C 259.3622 246.16 263.32 250.1178 263.32 255 L 263.32 278.32 C 263.32 283.2022 259.3622 287.16 254.48 287.16 L 169.16 287.16 C 164.2778 287.16 160.32 283.2022 160.32 278.32 L 160.32 255 C 160.32 250.1178 164.2778 246.16 169.16 246.16 Z" fill="#c41800" fill-opacity=".8533818"/>
      </g>
      <g id="Graphic_39">
        <path d="M 272.16 246.16 L 357.48 246.16 C 362.3622 246.16 366.32 250.1178 366.32 255 L 366.32 278.32 C 366.32 283.2022 362.3622 287.16 357.48 287.16 L 272.16 287.16 C 267.2778 287.16 263.32 283.2022 263.32 278.32 L 263.32 255 C 263.32 250.1178 267.2778 246.16 272.16 246.16 Z" fill="#6c63ff"/>
      </g>
      <g id="Graphic_40">
        <path d="M 272.16 246.16 L 357.48 246.16 C 362.3622 246.16 366.32 250.1178 366.32 255 L 366.32 278.32 C 366.32 283.2022 362.3622 287.16 357.48 287.16 L 272.16 287.16 C 267.2778 287.16 263.32 283.2022 263.32 278.32 L 263.32 255 C 263.32 250.1178 267.2778 246.16 272.16 246.16 Z" fill="#961800"/>
      </g>
      <g id="Graphic_41">
        <path d="M 375.16 246.16 L 460.48 246.16 C 465.3622 246.16 469.32 250.1178 469.32 255 L 469.32 278.32 C 469.32 283.2022 465.3622 287.16 460.48 287.16 L 375.16 287.16 C 370.2778 287.16 366.32 283.2022 366.32 278.32 L 366.32 255 C 366.32 250.1178 370.2778 246.16 375.16 246.16 Z" fill="#c41800" fill-opacity=".8533818"/>
      </g>
      <g id="Graphic_42">
        <path d="M 478.16 246.16 L 563.48 246.16 C 568.3622 246.16 572.32 250.1178 572.32 255 L 572.32 278.32 C 572.32 283.2022 568.3622 287.16 563.48 287.16 L 478.16 287.16 C 473.2778 287.16 469.32 283.2022 469.32 278.32 L 469.32 255 C 469.32 250.1178 473.2778 246.16 478.16 246.16 Z" fill="#6c63ff"/>
      </g>
      <g id="Graphic_43">
        <path d="M 478.16 246.16 L 563.48 246.16 C 568.3622 246.16 572.32 250.1178 572.32 255 L 572.32 278.32 C 572.32 283.2022 568.3622 287.16 563.48 287.16 L 478.16 287.16 C 473.2778 287.16 469.32 283.2022 469.32 278.32 L 469.32 255 C 469.32 250.1178 473.2778 246.16 478.16 246.16 Z" fill="#961800"/>
      </g>
      <g id="Graphic_44">
        <path d="M 581.16 246.16 L 666.48 246.16 C 671.3622 246.16 675.32 250.1178 675.32 255 L 675.32 278.32 C 675.32 283.2022 671.3622 287.16 666.48 287.16 L 581.16 287.16 C 576.2778 287.16 572.32 283.2022 572.32 278.32 L 572.32 255 C 572.32 250.1178 576.2778 246.16 581.16 246.16 Z" fill="#c41800" fill-opacity=".8533818"/>
      </g>
      <g id="Graphic_45">
        <path d="M 684.16 246.16 L 769.48 246.16 C 774.3622 246.16 778.32 250.1178 778.32 255 L 778.32 278.32 C 778.32 283.2022 774.3622 287.16 769.48 287.16 L 684.16 287.16 C 679.2778 287.16 675.32 283.2022 675.32 278.32 L 675.32 255 C 675.32 250.1178 679.2778 246.16 684.16 246.16 Z" fill="#6c63ff"/>
      </g>
      <g id="Graphic_46">
        <path d="M 684.16 246.16 L 769.48 246.16 C 774.3622 246.16 778.32 250.1178 778.32 255 L 778.32 278.32 C 778.32 283.2022 774.3622 287.16 769.48 287.16 L 684.16 287.16 C 679.2778 287.16 675.32 283.2022 675.32 278.32 L 675.32 255 C 675.32 250.1178 679.2778 246.16 684.16 246.16 Z" fill="#961800"/>
      </g>
      <g id="Graphic_47">
        <path d="M 769.48 246.16 L 684.16 246.16 C 679.2778 246.16 675.32 242.2022 675.32 237.32 L 675.32 214 C 675.32 209.1178 679.2778 205.16 684.16 205.16 L 769.48 205.16 C 774.3622 205.16 778.32 209.1178 778.32 214 L 778.32 237.32 C 778.32 242.2022 774.3622 246.16 769.48 246.16 Z" fill="#c41800" fill-opacity=".8533818"/>
      </g>
      <g id="Graphic_48">
        <path d="M 666.48 246.16 L 581.16 246.16 C 576.2778 246.16 572.32 242.2022 572.32 237.32 L 572.32 214 C 572.32 209.1178 576.2778 205.16 581.16 205.16 L 666.48 205.16 C 671.3622 205.16 675.32 209.1178 675.32 214 L 675.32 237.32 C 675.32 242.2022 671.3622 246.16 666.48 246.16 Z" fill="#6c63ff"/>
      </g>
      <g id="Graphic_49">
        <path d="M 666.48 246.16 L 581.16 246.16 C 576.2778 246.16 572.32 242.2022 572.32 237.32 L 572.32 214 C 572.32 209.1178 576.2778 205.16 581.16 205.16 L 666.48 205.16 C 671.3622 205.16 675.32 209.1178 675.32 214 L 675.32 237.32 C 675.32 242.2022 671.3622 246.16 666.48 246.16 Z" fill="#961800"/>
      </g>
      <g id="Graphic_50">
        <path d="M 563.48 246.16 L 478.16 246.16 C 473.2778 246.16 469.32 242.2022 469.32 237.32 L 469.32 214 C 469.32 209.1178 473.2778 205.16 478.16 205.16 L 563.48 205.16 C 568.3622 205.16 572.32 209.1178 572.32 214 L 572.32 237.32 C 572.32 242.2022 568.3622 246.16 563.48 246.16 Z" fill="#c41800" fill-opacity=".8533818"/>
      </g>
      <g id="Graphic_51">
        <path d="M 460.48 246.16 L 375.16 246.16 C 370.2778 246.16 366.32 242.2022 366.32 237.32 L 366.32 214 C 366.32 209.1178 370.2778 205.16 375.16 205.16 L 460.48 205.16 C 465.3622 205.16 469.32 209.1178 469.32 214 L 469.32 237.32 C 469.32 242.2022 465.3622 246.16 460.48 246.16 Z" fill="#6c63ff"/>
      </g>
      <g id="Graphic_52">
        <path d="M 460.48 246.16 L 375.16 246.16 C 370.2778 246.16 366.32 242.2022 366.32 237.32 L 366.32 214 C 366.32 209.1178 370.2778 205.16 375.16 205.16 L 460.48 205.16 C 465.3622 205.16 469.32 209.1178 469.32 214 L 469.32 237.32 C 469.32 242.2022 465.3622 246.16 460.48 246.16 Z" fill="#961800"/>
      </g>
      <g id="Graphic_53">
        <path d="M 357.48 246.16 L 272.16 246.16 C 267.2778 246.16 263.32 242.2022 263.32 237.32 L 263.32 214 C 263.32 209.1178 267.2778 205.16 272.16 205.16 L 357.48 205.16 C 362.3622 205.16 366.32 209.1178 366.32 214 L 366.32 237.32 C 366.32 242.2022 362.3622 246.16 357.48 246.16 Z" fill="#c41800" fill-opacity=".8533818"/>
      </g>
      <g id="Graphic_54">
        <path d="M 254.48 246.16 L 169.16 246.16 C 164.2778 246.16 160.32 242.2022 160.32 237.32 L 160.32 214 C 160.32 209.1178 164.2778 205.16 169.16 205.16 L 254.48 205.16 C 259.3622 205.16 263.32 209.1178 263.32 214 L 263.32 237.32 C 263.32 242.2022 259.3622 246.16 254.48 246.16 Z" fill="#6c63ff"/>
      </g>
      <g id="Graphic_55">
        <path d="M 254.48 246.16 L 169.16 246.16 C 164.2778 246.16 160.32 242.2022 160.32 237.32 L 160.32 214 C 160.32 209.1178 164.2778 205.16 169.16 205.16 L 254.48 205.16 C 259.3622 205.16 263.32 209.1178 263.32 214 L 263.32 237.32 C 263.32 242.2022 259.3622 246.16 254.48 246.16 Z" fill="#961800"/>
      </g>
      <g id="Graphic_56">
        <path d="M 169.16 164.16 L 254.48 164.16 C 259.3622 164.16 263.32 168.1178 263.32 173 L 263.32 196.32 C 263.32 201.2022 259.3622 205.16 254.48 205.16 L 169.16 205.16 C 164.2778 205.16 160.32 201.2022 160.32 196.32 L 160.32 173 C 160.32 168.1178 164.2778 164.16 169.16 164.16 Z" fill="#c41800" fill-opacity=".8533818"/>
      </g>
      <g id="Graphic_57">
        <path d="M 272.16 164.16 L 357.48 164.16 C 362.3622 164.16 366.32 168.1178 366.32 173 L 366.32 196.32 C 366.32 201.2022 362.3622 205.16 357.48 205.16 L 272.16 205.16 C 267.2778 205.16 263.32 201.2022 263.32 196.32 L 263.32 173 C 263.32 168.1178 267.2778 164.16 272.16 164.16 Z" fill="#6c63ff"/>
      </g>
      <g id="Graphic_58">
        <path d="M 272.16 164.16 L 357.48 164.16 C 362.3622 164.16 366.32 168.1178 366.32 173 L 366.32 196.32 C 366.32 201.2022 362.3622 205.16 357.48 205.16 L 272.16 205.16 C 267.2778 205.16 263.32 201.2022 263.32 196.32 L 263.32 173 C 263.32 168.1178 267.2778 164.16 272.16 164.16 Z" fill="#961800"/>
      </g>
      <g id="Graphic_59">
        <path d="M 375.16 164.16 L 460.48 164.16 C 465.3622 164.16 469.32 168.1178 469.32 173 L 469.32 196.32 C 469.32 201.2022 465.3622 205.16 460.48 205.16 L 375.16 205.16 C 370.2778 205.16 366.32 201.2022 366.32 196.32 L 366.32 173 C 366.32 168.1178 370.2778 164.16 375.16 164.16 Z" fill="#c41800" fill-opacity=".8533818"/>
      </g>
      <g id="Graphic_60">
        <path d="M 478.16 164.16 L 563.48 164.16 C 568.3622 164.16 572.32 168.1178 572.32 173 L 572.32 196.32 C 572.32 201.2022 568.3622 205.16 563.48 205.16 L 478.16 205.16 C 473.2778 205.16 469.32 201.2022 469.32 196.32 L 469.32 173 C 469.32 168.1178 473.2778 164.16 478.16 164.16 Z" fill="#6c63ff"/>
      </g>
      <g id="Graphic_61">
        <path d="M 478.16 164.16 L 563.48 164.16 C 568.3622 164.16 572.32 168.1178 572.32 173 L 572.32 196.32 C 572.32 201.2022 568.3622 205.16 563.48 205.16 L 478.16 205.16 C 473.2778 205.16 469.32 201.2022 469.32 196.32 L 469.32 173 C 469.32 168.1178 473.2778 164.16 478.16 164.16 Z" fill="#961800"/>
      </g>
      <g id="Graphic_62">
        <path d="M 581.16 164.16 L 666.48 164.16 C 671.3622 164.16 675.32 168.1178 675.32 173 L 675.32 196.32 C 675.32 201.2022 671.3622 205.16 666.48 205.16 L 581.16 205.16 C 576.2778 205.16 572.32 201.2022 572.32 196.32 L 572.32 173 C 572.32 168.1178 576.2778 164.16 581.16 164.16 Z" fill="#c41800" fill-opacity=".8533818"/>
      </g>
      <g id="Graphic_63">
        <path d="M 684.16 164.16 L 769.48 164.16 C 774.3622 164.16 778.32 168.1178 778.32 173 L 778.32 196.32 C 778.32 201.2022 774.3622 205.16 769.48 205.16 L 684.16 205.16 C 679.2778 205.16 675.32 201.2022 675.32 196.32 L 675.32 173 C 675.32 168.1178 679.2778 164.16 684.16 164.16 Z" fill="#6c63ff"/>
      </g>
      <g id="Graphic_64">
        <path d="M 684.16 164.16 L 769.48 164.16 C 774.3622 164.16 778.32 168.1178 778.32 173 L 778.32 196.32 C 778.32 201.2022 774.3622 205.16 769.48 205.16 L 684.16 205.16 C 679.2778 205.16 675.32 201.2022 675.32 196.32 L 675.32 173 C 675.32 168.1178 679.2778 164.16 684.16 164.16 Z" fill="#961800"/>
      </g>
      <g id="Graphic_65">
        <path d="M 676.16 27.57 L 769.48 27.57 C 774.3622 27.57 778.32 31.527803 778.32 36.41 L 778.32 62.91 C 778.32 67.7922 774.3622 71.75 769.48 71.75 L 676.16 71.75 C 671.2778 71.75 667.32 67.7922 667.32 62.91 L 667.32 36.41 C 667.32 31.527803 671.2778 27.57 676.16 27.57 Z" fill="url(#Obj_Gradient)"/>
      </g>
      <g id="Graphic_66">
        <path d="M 765.48 70.16 L 680.16 70.16 C 675.2778 70.16 671.32 66.2022 671.32 61.32 L 671.32 38 C 671.32 33.117803 675.2778 29.16 680.16 29.16 L 765.48 29.16 C 770.3622 29.16 774.32 33.117803 774.32 38 L 774.32 61.32 C 774.32 66.2022 770.3622 70.16 765.48 70.16 Z" fill="#c41800" fill-opacity=".8533818"/>
      </g>
      <g id="Graphic_67">
        <path d="M 666.48 164.16 L 581.16 164.16 C 576.2778 164.16 572.32 160.2022 572.32 155.32 L 572.32 132 C 572.32 127.1178 576.2778 123.16 581.16 123.16 L 666.48 123.16 C 671.3622 123.16 675.32 127.1178 675.32 132 L 675.32 155.32 C 675.32 160.2022 671.3622 164.16 666.48 164.16 Z" fill="#6c63ff"/>
      </g>
      <g id="Graphic_68">
        <path d="M 666.48 164.16 L 581.16 164.16 C 576.2778 164.16 572.32 160.2022 572.32 155.32 L 572.32 132 C 572.32 127.1178 576.2778 123.16 581.16 123.16 L 666.48 123.16 C 671.3622 123.16 675.32 127.1178 675.32 132 L 675.32 155.32 C 675.32 160.2022 671.3622 164.16 666.48 164.16 Z" fill="#961800"/>
      </g>
      <g id="Graphic_69">
        <path d="M 563.48 164.16 L 478.16 164.16 C 473.2778 164.16 469.32 160.2022 469.32 155.32 L 469.32 132 C 469.32 127.1178 473.2778 123.16 478.16 123.16 L 563.48 123.16 C 568.3622 123.16 572.32 127.1178 572.32 132 L 572.32 155.32 C 572.32 160.2022 568.3622 164.16 563.48 164.16 Z" fill="#c41800" fill-opacity=".8533818"/>
      </g>
      <g id="Graphic_70">
        <path d="M 460.48 164.16 L 375.16 164.16 C 370.2778 164.16 366.32 160.2022 366.32 155.32 L 366.32 132 C 366.32 127.1178 370.2778 123.16 375.16 123.16 L 460.48 123.16 C 465.3622 123.16 469.32 127.1178 469.32 132 L 469.32 155.32 C 469.32 160.2022 465.3622 164.16 460.48 164.16 Z" fill="#6c63ff"/>
      </g>
      <g id="Graphic_71">
        <path d="M 460.48 164.16 L 375.16 164.16 C 370.2778 164.16 366.32 160.2022 366.32 155.32 L 366.32 132 C 366.32 127.1178 370.2778 123.16 375.16 123.16 L 460.48 123.16 C 465.3622 123.16 469.32 127.1178 469.32 132 L 469.32 155.32 C 469.32 160.2022 465.3622 164.16 460.48 164.16 Z" fill="#961800"/>
      </g>
      <g id="Graphic_72">
        <path d="M 357.48 164.16 L 272.16 164.16 C 267.2778 164.16 263.32 160.2022 263.32 155.32 L 263.32 132 C 263.32 127.1178 267.2778 123.16 272.16 123.16 L 357.48 123.16 C 362.3622 123.16 366.32 127.1178 366.32 132 L 366.32 155.32 C 366.32 160.2022 362.3622 164.16 357.48 164.16 Z" fill="#c41800" fill-opacity=".8533818"/>
      </g>
      <g id="Graphic_73">
        <path d="M 254.48 164.16 L 169.16 164.16 C 164.2778 164.16 160.32 160.2022 160.32 155.32 L 160.32 132 C 160.32 127.1178 164.2778 123.16 169.16 123.16 L 254.48 123.16 C 259.3622 123.16 263.32 127.1178 263.32 132 L 263.32 155.32 C 263.32 160.2022 259.3622 164.16 254.48 164.16 Z" fill="#6c63ff"/>
      </g>
      <g id="Graphic_74">
        <path d="M 254.48 164.16 L 169.16 164.16 C 164.2778 164.16 160.32 160.2022 160.32 155.32 L 160.32 132 C 160.32 127.1178 164.2778 123.16 169.16 123.16 L 254.48 123.16 C 259.3622 123.16 263.32 127.1178 263.32 132 L 263.32 155.32 C 263.32 160.2022 259.3622 164.16 254.48 164.16 Z" fill="#961800"/>
      </g>
      <g id="Graphic_75">
        <path d="M 851.8459 455.40347 C 1046.7184 499.72794 1046.7184 571.59206 851.8459 615.9165 C 656.9744 660.2412 341.0256 660.2412 146.1541 615.9165 C -48.71837 571.59206 -48.71837 499.72794 146.1541 455.40347 C 341.0256 411.07877 656.9744 411.07877 851.8459 455.40347" fill="#e2ffe2"/>
      </g>
      <g id="Graphic_76">
        <path d="M 113.95 484.72 C 113.95 484.72 122.95 454.31 112.27 431.92 C 107.74322 422.5598 106.37811 411.9828 108.38 401.78 C 109.36799 396.94277 110.7973 392.2063 112.65 387.63" stroke="#535461" stroke-linecap="butt" stroke-linejoin="round" stroke-width="2"/>
      </g>
      <g id="Graphic_77">
        <path d="M 106.03 373.49 C 106.03 377.22 112.78 388.03 112.78 388.03 C 112.78 388.03 119.53 377.22 119.53 373.49 C 119.53 369.76208 116.50792 366.74 112.78 366.74 C 109.05208 366.74 106.03 369.76208 106.03 373.49 Z" fill="#009f00"/>
      </g>
      <g id="Graphic_78">
        <path d="M 94.87 394.14 C 96.87 397.27 108.44 402.67 108.44 402.67 C 108.44 402.67 108.23 389.93 106.2 386.8 C 104.16386 383.69454 100.0017 382.817 96.88511 384.83604 C 93.76851 386.8551 92.8681 391.01236 94.87 394.14 Z" fill="#009f00"/>
      </g>
      <g id="Graphic_79">
        <path d="M 95.36 429.42 C 98.69 431.1 111.36 429.94 111.36 429.94 C 111.36 429.94 104.75 419.05 101.42 417.37 C 98.10712 415.7852 94.13511 417.13975 92.48078 420.41847 C 90.82646 423.6972 92.09691 427.6969 95.34 429.42 Z" fill="#009f00"/>
      </g>
      <g id="Graphic_80">
        <path d="M 101.74 456.03 C 104.74 458.25 117.44 459.25 117.44 459.25 C 117.44 459.25 112.76 447.4 109.77 445.18 C 106.77275 443.2098 102.75802 443.9278 100.62942 446.8147 C 98.50081 449.7016 99.00178 453.74917 101.77 456.03 Z" fill="#009f00"/>
      </g>
      <g id="Graphic_81">
        <path d="M 122.61 403.39 C 119.94 405.99 107.48 408.68 107.48 408.68 C 107.48 408.68 110.53 396.31 113.2 393.68 C 114.92917 391.99907 117.42375 391.3683 119.74406 392.02535 C 122.06438 392.6824 123.85791 394.5274 124.44906 396.86535 C 125.04021 399.2033 124.33917 401.67907 122.61 403.36 Z" fill="#009f00"/>
      </g>
      <g id="Graphic_82">
        <path d="M 129.68 434.58 C 126.35 436.26 113.68 435.1 113.68 435.1 C 113.68 435.1 120.29 424.21 123.62 422.53 C 126.91724 421.0425 130.80095 422.41856 132.42614 425.65015 C 134.05132 428.88175 132.84021 432.82003 129.68 434.58 Z" fill="#009f00"/>
      </g>
      <g id="Graphic_83">
        <path d="M 132.38 465.9 C 129.38 468.12 116.68 469.12 116.68 469.12 C 116.68 469.12 121.36 457.27 124.35 455.05 C 127.34725 453.0798 131.36198 453.7978 133.49058 456.6847 C 135.61919 459.5716 135.11822 463.61917 132.35 465.9 Z" fill="#009f00"/>
      </g>
      <g id="Graphic_84">
        <path d="M 596.98 312.38 C 596.98 312.38 629.87 345.27 611.3 394.07 C 592.73 442.87 643.13 524.07 643.13 524.07 C 643.13 524.07 642.59 523.99 641.59 523.81 C 574.04 511.84 540.48 434.58 578.04 377.2 C 592 355.86 603.47 330.84 596.98 312.38 Z" fill="#6c63ff"/>
      </g>
      <g id="Graphic_85">
        <path d="M 596.98 312.38 C 596.98 312.38 629.87 345.27 611.3 394.07 C 592.73 442.87 643.13 524.07 643.13 524.07 C 643.13 524.07 642.59 523.99 641.59 523.81 C 574.04 511.84 540.48 434.58 578.04 377.2 C 592 355.86 603.47 330.84 596.98 312.38 Z" fill="black"/>
      </g>
      <g id="Graphic_86">
        <path d="M 596.98 312.38 C 596.98 312.38 615.55 352.69 596.98 385.58 C 578.41 418.47 593.8 510.76 643.16 524.02" stroke="#535461" stroke-linecap="butt" stroke-linejoin="round" stroke-width="1"/>
      </g>
      <g id="Graphic_87">
        <path d="M 538.41 445.39 C 538.41 445.39 575.94 439.39 579.36 473.05 C 582.78 506.71 651.52 511.34 651.52 511.34 L 650.23 512.2 C 593.47 549.46 539.23 535.93 547.39 486.46 C 550.43 468.07 550.16 449.58 538.41 445.39 Z" fill="#6c63ff"/>
      </g>
      <g id="Graphic_88">
        <path d="M 538.41 445.39 C 538.41 445.39 575.94 439.39 579.36 473.05 C 582.78 506.71 651.52 511.34 651.52 511.34 L 650.23 512.2 C 593.47 549.46 539.23 535.93 547.39 486.46 C 550.43 468.07 550.16 449.58 538.41 445.39 Z" fill="#f5f5f5"/>
      </g>
      <g id="Graphic_89">
        <path d="M 538.41 445.39 C 538.41 445.39 567.54 451.78 565.15 478.27 C 562.76 504.76 608.41 536.51 651.52 511.34" stroke="#535461" stroke-linecap="butt" stroke-linejoin="round" stroke-width="1"/>
      </g>
      <g id="Graphic_90">
        <path d="M 823.93 522.81 C 823.93 522.81 768.23 511.67 753.37 496.81 C 738.51 481.95 671.67 455.96 664.24 474.53 C 656.81 493.1 563.98 556.24 627.16 567.38 C 690.34 578.52 775.7 582.23 794.27 574.81 C 812.84 567.39 823.93 522.81 823.93 522.81 Z" fill="#a8a8a8"/>
      </g>
      <g id="Graphic_91">
        <path d="M 627.16 560.48 C 690.29 571.62 775.7 575.33 794.27 567.91 C 808.41 562.25 818.27 535.08 822.12 522.43 L 823.98 522.82 C 823.98 522.82 812.84 567.38 794.27 574.82 C 775.7 582.26 690.27 578.53 627.16 567.39 C 608.94 564.17 603.73 556.62 605.69 547.06 C 607.16 553.29 613.55 558.08 627.16 560.48 Z" fill="black"/>
      </g>
      <g id="Graphic_92">
        <path d="M 936.63 28.17 C 935.6369 25.696236 934.0543 23.502618 932.02 21.78 C 917.07 8.16 892.9 12.29 874.34 3.96 C 870.06 2.04 865.68 -.62 861.04 .11 C 854.56 1.11 848.53 8.51 842.88 5.23 L 843.28 6.46 L 842.88 6.25 L 847.04 18.91 C 848.64 23.77 850.32 28.77 853.42 32.82 C 844.0933 40.952883 839.5343 53.265166 841.3151 65.51099 C 843.096 77.75681 850.9731 88.26054 862.23 93.4 C 862.43 93.82 862.62 94.25 862.81 94.68 L 863.34 94.9 C 864.5709 97.73179 865.4896 100.68923 866.08 103.72 C 861.27 104.39 852.88 109.72 844.64 117.56 L 828.16 117.01 C 817.5007 116.65415 807.1862 113.14637 798.52 106.93 L 749.16 71.48 C 745.6439 71.826295 742.3316 73.29141 739.71 75.66 C 733.59 69.28 728.39 62.66 728.83 58.66 C 728.83 58.66 705.89 15.73 697.55 37.19 C 689.21 58.65 713.19 81.19 713.19 81.19 L 728.4 100.9 C 727.7993 104.35571 727.4186 107.84606 727.26 111.35 C 746.03 132.82 811.71 152.24 811.71 152.24 L 821.95 152.74 L 822.01 153.24 C 821.3799 155.92729 821.071 158.67989 821.09 161.44 C 821.09 161.84 821.09 162.25 821.09 162.67 C 821.09 163.09 821.09 163.22 821.09 163.49 C 821.61 197.73 826.3 302.49 826.3 302.49 C 827.21 302.08 828.16 301.71 829.12 301.36 L 828.39 310.67 C 828.39 310.67 784.6 316.8 752.28 329.07 C 719.96 341.34 718.92 355.65 718.92 355.65 L 718.92 481.91 C 709.69 486.65 695.12 492.91 687.64 489.54 C 679.52 485.92 675.07 488.96 674.26 492.13 C 674.1058 492.7573 674.1058 493.4127 674.26 494.04 C 674.32854 494.32206 674.4327 494.59425 674.57 494.85 L 674.57 494.91 C 674.7188 495.1745 674.90395 495.41686 675.12 495.63 C 678.25 498.7 746.02 525.27 761.66 521.18 C 762.1439 521.05305 762.6183 520.89266 763.08 520.7 C 763.23 520.64 763.36 520.56 763.51 520.49 C 763.66 520.42 764.09 520.22 764.36 520.06 C 764.63 519.9 764.67 519.85 764.82 519.75 C 764.97 519.65 765.29 519.44 765.51 519.27 C 765.73 519.1 765.8 519.01 765.94 518.88 C 766.08 518.75 766.35 518.53 766.53 518.33 C 766.71 518.13 766.79 518.03 766.92 517.88 C 767.05 517.73 767.28 517.48 767.44 517.26 C 767.6 517.04 767.66 516.93 767.78 516.77 C 767.9 516.61 768.1 516.31 768.24 516.07 C 768.38 515.83 768.43 515.73 768.52 515.55 C 768.61 515.37 768.8 515.04 768.93 514.77 C 769.06 514.5 769.09 514.42 769.16 514.24 C 769.23 514.06 769.41 513.67 769.52 513.38 C 769.63 513.09 769.64 513.03 769.71 512.85 C 769.78 512.67 769.93 512.22 770.02 511.85 C 770.02 511.68 770.11 511.51 770.16 511.34 C 770.25 510.99 770.35 510.65 770.43 510.34 C 770.43 510.18 770.5 510.02 770.53 509.86 C 770.61 509.48 770.69 509.1 770.75 508.72 C 770.75 508.58 770.75 508.43 770.82 508.29 C 770.89 507.88 770.95 507.46 771 507.05 L 771 506.69 C 771.05 506.24 771.1 505.79 771.14 505.34 L 771.14 505.06 C 771.18 504.57333 771.21 504.08667 771.23 503.6 L 771.23 503.4 C 771.23 502.88 771.23 502.36 771.23 501.84 L 771.23 501.74 C 771.211 495.6427 770.5405 489.56484 769.23 483.61 L 773.16 376.08 C 793.6388 376.3984 814.1201 375.64403 834.52 373.82 L 836.76 425.14 C 836.76 425.14 836.76 458.87 848.23 474.2 C 858.05 487.32 869.39 545.35 872.45 561.82 C 868.24 569.82 860.18 579.82 846.14 579.48 C 846.14 579.48 819.73 577.2 821.22 584.48 C 821.262 584.6708 821.3188 584.85806 821.39 585.04 C 821.4732 585.24945 821.5701 585.4532 821.68 585.65 C 821.79 585.84 821.91 586.03 822.05 586.23 L 822.13 586.35 C 822.28 586.56 822.45 586.78 822.64 587.01 L 822.64 587.06 C 822.82 587.27 823.01 587.48 823.22 587.69 L 823.4 587.87 C 823.64 588.11 823.88 588.35 824.16 588.6 C 837.71 600.87 916.95 602.91 916.95 602.91 L 916.95 602.63 C 916.95 602.55 916.95 602.45 916.95 602.34 C 916.95 598.79 916.43 580.17 911.69 566.15 L 912.79 566.15 C 912.79 566.15 901.32 462.91 891.94 450.65 C 891.94 450.65 889.45 396.21 895.07 362.1 L 896.07 361.72 C 922.35 351.9 924.22 327.72 921.51 309.96 C 926.51 311.56 929.43 312.65 929.43 312.65 C 929.43 312.65 929.34 311.88 929.17 310.51 L 929.43 310.61 C 929.43 310.61 928.93 307.36 928.1 302.3 C 926.22 288.37 922.58 264.03 918.7 252.54 C 918.07 250.01 917.47 247.85 916.92 246.22 C 914.6809 239.31545 913.1431 232.20286 912.33 224.99 C 911.2673 215.64081 910.7298 206.23938 910.72 196.83 C 910.8053 184.25825 911.7676 171.70778 913.6 159.27 C 915.19 148.41 916.6 136.05 916.5 127.42 C 916.6101 124.40614 916.399 121.38912 915.87 118.42 C 914.48 112.05 908.33 107.91 901.94 105.27 C 901.53 105.1 901.11 104.96 900.69 104.8 C 900.85 102.39 901.05 99.65 901.31 96.8 C 902.8573 97.87232 904.7768 98.26273 906.62 97.88 C 909.37 97.28 911.34 94.99 913.09 92.88 C 922.33 81.53 931.82 69.7 935.37 55.6 C 936.804 49.30333 937.4755 42.857037 937.37 36.4 C 937.37 36.046667 937.37 35.693333 937.37 35.34 C 937.5408 32.925173 937.2905 30.49903 936.63 28.17 Z" fill="url(#Obj_Gradient_2)"/>
      </g>
      <g id="Graphic_93">
        <path d="M 852.5 83.5 C 852.5 83.5 866.5 104.5 863.5 114.5 C 860.5 124.5 896.5 118.5 896.5 118.5 C 896.5 118.5 897.5 79.5 904.5 70.5 C 911.5 61.5 852.5 83.5 852.5 83.5 Z" fill="#f7c4a7"/>
      </g>
      <g id="Graphic_94">
        <path d="M 760 97 C 760 97 731 73 732 64 C 732 64 710 22 702 43 C 694 64 717 86 717 86 L 745 123 Z" fill="#f7c4a7"/>
      </g>
      <g id="Graphic_95">
        <path d="M 730.5 473.5 C 730.5 473.5 703.5 490.5 692.5 485.5 C 681.5 480.5 677.5 488.5 680.5 491.5 C 683.5 494.5 748.5 520.5 763.5 516.5 C 778.5 512.5 770.87 479.74 770.87 479.74 Z" fill="#535461"/>
      </g>
      <g id="Graphic_96">
        <path d="M 873.5 546.5 C 873.5 546.5 867 574 844.5 573.5 C 844.5 573.5 810.5 570.5 823.5 582.5 C 836.5 594.5 912.5 596.5 912.5 596.5 C 912.5 596.5 912.5 555.5 898.5 546.5 C 884.5 537.5 873.5 546.5 873.5 546.5 Z" fill="#535461"/>
      </g>
      <g id="Graphic_97">
        <path d="M 832.5 352.5 L 835.5 422.5 C 835.5 422.5 835.5 455.5 846.5 470.5 C 857.5 485.5 870.5 560.5 870.5 560.5 L 908.5 560.5 C 908.5 560.5 897.5 459.5 888.5 447.5 C 888.5 447.5 884.5 358.5 898.5 338.5 Z" fill="#575988"/>
      </g>
      <g id="Graphic_98">
        <path d="M 832.5 352.5 L 835.5 422.5 C 835.5 422.5 835.5 455.5 846.5 470.5 C 857.5 485.5 870.5 560.5 870.5 560.5 L 908.5 560.5 C 908.5 560.5 897.5 459.5 888.5 447.5 C 888.5 447.5 884.5 358.5 898.5 338.5 Z" fill="black"/>
      </g>
      <g id="Graphic_99">
        <path d="M 911.5 289.5 C 911.5 289.5 934.5 344.5 892.5 360.5 C 850.5 376.5 774.5 374.5 774.5 374.5 L 770.5 490.5 C 770.5 490.5 723.5 496.5 722.5 481.5 L 722.5 354.5 C 722.5 354.5 723.5 340.5 754.5 328.5 C 785.5 316.5 827.5 310.5 827.5 310.5 L 829.5 284.5 Z" fill="#575988"/>
      </g>
      <g id="Graphic_100">
        <path d="M 874.65 108.31 C 882.6378 107.42563 890.7198 108.56742 898.15 111.63 C 904.28 114.21 910.15 118.26 911.51 124.49 C 913.09 131.87 911.34 148.42 909.33 162.43 C 906.11 184.3852 905.7001 206.66118 908.11 228.72 C 909.11 237.91 910.56 245.92 912.51 249.49 C 918.51 260.49 924.51 312.49 924.51 312.49 C 924.51 312.49 858.51 287.49 825.51 302.49 C 825.51 302.49 821.01 199.99 820.51 166.49 C 820.12 140.55 853.01 110.99 864.01 109.99 C 870.45 109.41 868.24 108.98 874.65 108.31 Z" fill="black"/>
      </g>
      <g id="Graphic_101">
        <path d="M 874.65 106.31 C 882.6378 105.42563 890.7198 106.56742 898.15 109.63 C 904.28 112.21 910.15 116.26 911.51 122.49 C 913.09 129.87 911.34 146.42 909.33 160.43 C 906.11 182.3852 905.7001 204.66118 908.11 226.72 C 908.8879 233.77153 910.3618 240.72876 912.51 247.49 C 917.01 260.99 924.51 310.49 924.51 310.49 C 924.51 310.49 858.51 285.49 825.51 300.49 C 825.51 300.49 821.01 197.99 820.51 164.49 C 820.12 138.55 853.01 108.99 864.01 107.99 C 870.45 107.41 868.24 106.98 874.65 106.31 Z" fill="#e14b5a"/>
      </g>
      <g id="Graphic_102">
        <path d="M 892.5 161.5 L 821.5 157.5 C 821.5 157.5 816.98 122.69 827.23 123.05 L 897.5 125.5 C 897.5 125.5 912.5 143.5 892.5 161.5 Z" fill="black"/>
      </g>
      <g id="Graphic_103">
        <path d="M 892.5 159.5 L 811.5 155.5 C 811.5 155.5 748.5 136.5 730.5 115.5 C 730.5 115.5 731.5 78.5 751.5 76.5 L 798.81 111.19 C 807.0788 117.2549 816.9817 120.69058 827.23 121.05 L 897.5 123.5 C 897.5 123.5 912.5 141.5 892.5 159.5 Z" fill="#e14b5a"/>
      </g>
      <g id="Graphic_104">
        <path d="M 896 88 C 897.19 78.52 901.49 75.37 904.5 71.5 C 911.5 62.5 852.5 84.5 852.5 84.5 C 855.5501 89.18488 858.2251 94.10353 860.5 99.21 C 865.2037 101.37725 870.3211 102.49967 875.5 102.5 C 884.16 102.5 889.78 93.13 896 88 Z" fill="black"/>
      </g>
      <g id="Graphic_105">
        <circle cx="875.5" cy="65.5" r="36.0000575244683" fill="#f7c4a7"/>
      </g>
      <g id="Graphic_106">
        <path d="M 852.77 40.27 C 848.94 36.08 847.09 30.5 845.35 25.09 L 841.35 12.7 C 846.77 15.9 852.55 8.7 858.77 7.7 C 863.22 6.99 867.43 9.59 871.53 11.46 C 889.33 19.6 912.53 15.56 926.85 28.89 C 928.8073 30.585003 930.3241 32.729716 931.27 35.14 C 931.9307 37.411287 932.2012 39.778213 932.07 42.14 C 932.1868 48.451735 931.5592 54.75524 930.2 60.92 C 926.8 74.71 917.7 86.29 908.83 97.39 C 907.15 99.5 905.26 101.74 902.62 102.33 C 897.47 103.48 893.49 97.92 891.5 93.04 C 888.8635 86.57353 886.9193 79.84601 885.7 72.97 C 885.18 70.06 884.77 67.06 883.32 64.49 C 880.22 59 872.58 53.8 867.94 49.54 C 863.3 45.28 857.03 44.92 852.77 40.27 Z" fill="black"/>
      </g>
      <g id="Graphic_107">
        <path d="M 852.77 39.27 C 848.94 35.08 847.09 29.5 845.35 24.09 L 841.35 11.7 C 846.77 14.9 852.55 7.7 858.77 6.7 C 863.22 5.99 867.43 8.59 871.53 10.46 C 889.33 18.6 912.53 14.56 926.85 27.89 C 928.8073 29.585003 930.3241 31.729716 931.27 34.14 C 931.9307 36.411287 932.2012 38.778213 932.07 41.14 C 932.1868 47.451735 931.5592 53.75524 930.2 59.92 C 926.8 73.71 917.7 85.29 908.83 96.39 C 907.15 98.5 905.26 100.74 902.62 101.33 C 897.47 102.48 893.49 96.92 891.5 92.04 C 888.8635 85.57353 886.9193 78.84601 885.7 71.97 C 885.18 69.06 884.77 66.06 883.32 63.49 C 880.22 58 872.58 52.8 867.94 48.54 C 863.3 44.28 857.03 43.92 852.77 39.27 Z" fill="#632652"/>
      </g>
      <g id="Graphic_108">
        <ellipse cx="885" cy="69.5" rx="3.00000479370577" ry="6.50001038636233" fill="#f7c4a7"/>
      </g>
      <g id="Graphic_109">
        <path d="M 903 243 C 903 243 901 249 891 248 C 881 247 852 245 852 248" fill="black"/>
      </g>
      <g id="Graphic_110">
        <path d="M 823.5 581.5 C 821.7 579.84 820.8 578.5 820.59 577.33 C 820.33 578.63 821.13 580.33 823.5 582.5 C 836.5 594.5 912.5 596.5 912.5 596.5 C 912.5 596.5 912.5 596.15 912.5 595.5 C 912.01 595.49 836.46 593.46 823.5 581.5 Z" fill="white"/>
      </g>
      <g id="Graphic_111">
        <path d="M 763.5 514.5 C 748.5 518.5 683.5 492.5 680.5 489.5 C 680.1002 489.09446 679.814 488.591 679.67 488.04 C 679.3175 489.259 679.6329 490.57355 680.5 491.5 C 683.5 494.5 748.5 520.5 763.5 516.5 C 771.22 514.44 772.94 504.77 772.8 495.86 C 772.65 504.16 770.64 512.58 763.5 514.5 Z" fill="white"/>
      </g>
      <g id="Graphic_112">
        <path d="M 502.09 503.74 C 502.9184 503.74 503.59 503.0684 503.59 502.24 C 503.59 501.4116 502.9184 500.74 502.09 500.74 C 501.2616 500.74 500.59 501.4116 500.59 502.24 C 500.59 503.0684 501.2616 503.74 502.09 503.74 Z" fill="#67647e"/>
      </g>
      <g id="Graphic_113">
        <path d="M 91.49 477.21 C 91.49 477.21 128.81 476.06 140.05 468.05 C 151.29 460.04 197.45 450.48 200.24 463.32 C 203.03 476.16 256.33 527.2 214.16 527.58 C 171.99 527.96 116.27 521.02 105.04 514.18 C 93.81 507.34 91.49 477.21 91.49 477.21 Z" fill="#a8a8a8"/>
      </g>
      <g id="Graphic_114">
        <path d="M 214.95 523.07 C 172.82 523.41 117.06 516.51 105.83 509.67 C 97.28 504.46 93.83 485.78 92.74 477.16 L 91.49 477.16 C 91.49 477.16 93.85 507.26 105.08 514.09 C 116.31 520.92 172.07 527.88 214.16 527.58 C 226.32 527.48 230.52 523.16 230.29 516.75 C 228.64 520.58 224 523 214.95 523.07 Z" fill="black"/>
      </g>
      <g id="Graphic_116">
        <path d="M 1031.5821 574.68874 L 946.2621 574.68874 C 941.3799 574.68874 937.4221 570.73094 937.4221 565.84874 L 937.4221 542.52874 C 937.4221 537.64654 941.3799 533.68874 946.2621 533.68874 L 1031.5821 533.68874 C 1036.4643 533.68874 1040.4221 537.64654 1040.4221 542.52874 L 1040.4221 565.84874 C 1040.4221 570.73094 1036.4643 574.68874 1031.5821 574.68874 Z" fill="#961800"/>
      </g>
      <g id="Graphic_117">
        <path d="M 946.16 493.16 L 1031.48 493.16 C 1036.3622 493.16 1040.32 497.1178 1040.32 502 L 1040.32 525.32 C 1040.32 530.2022 1036.3622 534.16 1031.48 534.16 L 946.16 534.16 C 941.2778 534.16 937.32 530.2022 937.32 525.32 L 937.32 502 C 937.32 497.1178 941.2778 493.16 946.16 493.16 Z" fill="#c41800" fill-opacity=".8533818"/>
      </g>
      <g id="Graphic_118">
        <path d="M 1031.48 493.16 L 946.16 493.16 C 941.2778 493.16 937.32 489.2022 937.32 484.32 L 937.32 461 C 937.32 456.1178 941.2778 452.16 946.16 452.16 L 1031.48 452.16 C 1036.3622 452.16 1040.32 456.1178 1040.32 461 L 1040.32 484.32 C 1040.32 489.2022 1036.3622 493.16 1031.48 493.16 Z" fill="#6c63ff"/>
      </g>
      <g id="Graphic_119">
        <path d="M 1031.48 493.16 L 946.16 493.16 C 941.2778 493.16 937.32 489.2022 937.32 484.32 L 937.32 461 C 937.32 456.1178 941.2778 452.16 946.16 452.16 L 1031.48 452.16 C 1036.3622 452.16 1040.32 456.1178 1040.32 461 L 1040.32 484.32 C 1040.32 489.2022 1036.3622 493.16 1031.48 493.16 Z" fill="#961800"/>
      </g>
      <g id="Graphic_120">
        <path d="M 946.16 411.16 L 1031.48 411.16 C 1036.3622 411.16 1040.32 415.1178 1040.32 420 L 1040.32 443.32 C 1040.32 448.2022 1036.3622 452.16 1031.48 452.16 L 946.16 452.16 C 941.2778 452.16 937.32 448.2022 937.32 443.32 L 937.32 420 C 937.32 415.1178 941.2778 411.16 946.16 411.16 Z" fill="#c41800" fill-opacity=".8533818"/>
      </g>
    </g>
  </g>
</svg>
