<?xml version="1.0" encoding="UTF-8" standalone="no"?>
<!DOCTYPE svg PUBLIC "-//W3C//DTD SVG 1.1//EN" "http://www.w3.org/Graphics/SVG/1.1/DTD/svg11.dtd">
<svg version="1.1" xmlns="http://www.w3.org/2000/svg" xmlns:xl="http://www.w3.org/1999/xlink" xmlns:dc="http://purl.org/dc/elements/1.1/" viewBox="0 0 64 109" width="64" height="109">
  <defs/>
  <metadata> Produced by OmniGraffle 7.17.1\n2020-07-28 11:39:13 +0000</metadata>
  <g id="Canvas_1" stroke="none" stroke-dasharray="none" fill="none" fill-opacity="1" stroke-opacity="1">
    <title>Canvas 1</title>
    <rect fill="white" x="0" y="0" width="64" height="109"/>
    <g id="Canvas_1_Layer_1">
      <title>Layer 1</title>
      <g id="Group_2">
        <title>Page-1</title>
        <g id="Group_20">
          <title>logo-background</title>
          <g id="Graphic_22">
            <title>logo-background-bottom</title>
            <path d="M .5 75.5 C .5 75.5 63.4 81.8 63.4 92.3 L 63.4 67.1 C 63.4 67.1 63.4 56.6 .5 50.3 Z" fill="#cd8d8e"/>
          </g>
          <g id="Graphic_21">
            <title>logo-background-top</title>
            <path d="M .5 41.9 C .5 41.9 63.4 48.2 63.4 58.7 L 63.4 33.5 C 63.4 33.5 63.4 23 .5 16.7 L .5 26.5 Z" fill="#cd8d8e"/>
          </g>
        </g>
        <g id="Group_16">
          <title>logo-foreground</title>
          <g id="Graphic_19">
            <title>Logo_Foreground_Bottom</title>
            <path d="M .5 109 L .5 83.8 C .5 83.8 63.4 77.5 63.4 67 L 63.4 92.2 C 63.5 92.3 63.5 102.7 .5 109" fill="#ff8080"/>
          </g>
          <g id="Graphic_18">
            <title>Logo_Foreground_Middle</title>
            <path d="M .5 50.3 C .5 50.3 63.4 44 63.4 33.5 L 63.4 58.7 C 63.4 58.7 63.4 69.2 .5 75.5 Z" fill="#ff8080"/>
          </g>
          <g id="Graphic_17">
            <title>logo-foreground-top</title>
            <path d="M 63.5 0 L 63.5 25.2 C 63.5 25.2 63.5 35.7 .6 42 L .6 16.7 C .5 16.7 63.5 10.5 63.5 0" fill="#ff8080"/>
          </g>
        </g>
        <g id="Group_3">
          <title>dots</title>
          <g id="Group_12">
            <title>bottom</title>
            <g id="Graphic_15">
              <title>Shape</title>
              <path d="M 5.4471104 89.78855 C 5.450193 89.78819 5.450193 89.78819 5.453277 89.78782 C 5.9176895 89.73248 6.249308 89.31114 6.193968 88.84672 C 6.138628 88.38231 5.717285 88.05069 5.2528724 88.10603 C 5.249806 88.1064 5.249806 88.1064 5.24674 88.10676 C 4.7823266 88.16209 4.4506994 88.58343 4.50603 89.04784 C 4.561361 89.51226 4.982697 89.84388 5.4471104 89.78855 Z M 13.34859 89.63049 C 13.354091 89.62976 13.354091 89.62976 13.359593 89.62902 C 14.180728 89.51934 14.757476 88.76477 14.647795 87.94363 C 14.538115 87.1225 13.783541 86.54575 12.962407 86.65543 C 12.956935 86.65616 12.956935 86.65616 12.951465 86.65689 C 12.130328 86.76655 11.553565 87.52112 11.663228 88.34225 C 11.77289 89.16339 12.527453 89.74015 13.34859 89.63049 Z M 21.00666 88.54931 C 21.01212 88.5485 21.01212 88.5485 21.01758 88.54768 C 21.836937 88.42544 22.402058 87.66212 22.279813 86.84276 C 22.157568 86.0234 21.394247 85.45828 20.57489 85.58053 C 20.569464 85.58134 20.569464 85.58134 20.56404 85.58214 C 19.744678 85.70437 19.17954 86.46768 19.301765 87.28704 C 19.42399 88.1064 20.187298 88.67154 21.00666 88.54931 Z M 28.822508 87.92325 C 28.82977 87.92203 28.82977 87.92203 28.83703 87.92081 C 29.922252 87.73867 30.654344 86.71126 30.472202 85.62604 C 30.29006 84.54082 29.262658 83.80873 28.177435 83.99087 C 28.17023 83.99208 28.17023 83.99208 28.163028 83.99329 C 27.0778 84.1754 26.345678 85.20278 26.527788 86.28801 C 26.709898 87.37323 27.73728 88.10536 28.822508 87.92325 Z M 36.472527 86.55261 C 37.55321 86.34533 38.261245 85.30123 38.053965 84.22054 C 37.846685 83.13986 36.802583 82.43183 35.7219 82.63911 C 35.714724 82.64048 35.714724 82.64048 35.70755 82.64186 C 34.626857 82.8491 33.918783 83.89317 34.12602 84.97386 C 34.33326 86.05456 35.377334 86.76263 36.458026 86.55539 C 36.465276 86.554 36.465276 86.554 36.472527 86.55261 Z M 43.872387 84.39477 C 43.87791 84.39352 43.87791 84.39352 43.88343 84.39228 C 44.69158 84.2101 45.19903 83.40729 45.016857 82.59914 C 44.83468 81.79099 44.031866 81.28354 43.22372 81.46572 C 43.21828 81.46694 43.21828 81.46694 43.21284 81.46817 C 42.40468 81.6503 41.897183 82.45308 42.07931 83.26124 C 42.26144 84.0694 43.06423 84.5769 43.872387 84.39477 Z M 51.42761 82.50828 C 51.432984 82.50679 51.432984 82.50679 51.438356 82.50529 C 52.23629 82.28259 52.70261 81.45521 52.479915 80.65727 C 52.25722 79.85934 51.429834 79.39302 50.6319 79.61571 C 50.626665 79.617175 50.626665 79.617175 50.62143 79.61864 C 49.823474 79.84126 49.357074 80.6686 49.579696 81.46655 C 49.80232 82.26451 50.62966 82.73091 51.42761 82.50828 Z M 58.41976 79.80644 C 58.85569 79.63696 59.0717 79.14617 58.90222 78.71024 C 58.73274 78.274305 58.24195 78.0583 57.80602 78.22778 C 57.80321 78.22887 57.80321 78.22887 57.800406 78.22996 C 57.364436 78.39935 57.14833 78.89009 57.317714 79.32606 C 57.4871 79.76203 57.97784 79.97814 58.41381 79.80875 C 58.416785 79.807595 58.416785 79.807595 58.41976 79.80644 Z" fill="#a0a0a0"/>
            </g>
            <g id="Graphic_14">
              <title>Shape</title>
              <path d="M 5.6776035 97.5965 C 5.683064 97.59585 5.683064 97.59585 5.6885264 97.5952 C 6.511134 97.49718 7.098525 96.75086 7.000502 95.92825 C 6.9024785 95.10564 6.15616 94.51825 5.3335525 94.61628 C 5.3281205 94.61692 5.3281205 94.61692 5.3226906 94.61757 C 4.500081 94.71558 3.9126745 95.46188 4.010681 96.28449 C 4.1086875 97.1071 4.854994 97.69451 5.6776035 97.5965 Z M 13.34859 96.62742 C 13.354091 96.62669 13.354091 96.62669 13.359593 96.62595 C 14.180728 96.51627 14.757476 95.7617 14.647795 94.94056 C 14.538115 94.11943 13.783541 93.54268 12.962407 93.65236 C 12.956935 93.65309 12.956935 93.65309 12.951465 93.65382 C 12.130328 93.76348 11.553565 94.51805 11.663228 95.33918 C 11.77289 96.16032 12.527453 96.73708 13.34859 96.62742 Z M 21.176743 96.12562 C 21.183996 96.12454 21.183996 96.12454 21.191249 96.12346 C 22.27963 95.96108 23.0303 94.94713 22.867917 93.85875 C 22.705535 92.77037 21.69159 92.0197 20.60321 92.18208 C 20.596002 92.18316 20.596002 92.18316 20.588796 92.18423 C 19.500411 92.34659 18.749717 93.36052 18.912074 94.4489 C 19.074431 95.53729 20.088358 96.28798 21.176743 96.12562 Z M 28.83703 94.91774 C 29.922252 94.7356 30.654344 93.70819 30.472202 92.62297 C 30.29006 91.53775 29.262658 90.80565 28.177435 90.9878 C 28.17023 90.98901 28.17023 90.98901 28.163028 90.99021 C 27.0778 91.17232 26.345678 92.19971 26.527788 93.28493 C 26.709898 94.37016 27.73728 95.10229 28.822508 94.92017 C 28.82977 94.91896 28.82977 94.91896 28.83703 94.91774 Z M 36.472526 93.56108 C 37.55321 93.3532 38.261245 92.30605 38.053965 91.2222 C 37.846685 90.13836 36.802583 89.42826 35.7219 89.63614 C 35.714724 89.63752 35.714724 89.63752 35.70755 89.6389 C 34.626857 89.84675 33.918783 90.89387 34.12602 91.97772 C 34.33326 93.06157 35.377334 93.77172 36.458026 93.56387 C 36.465276 93.56248 36.465276 93.56248 36.472526 93.56108 Z M 44.07072 91.96955 C 44.078057 91.9679 44.078057 91.9679 44.08539 91.96624 C 45.15877 91.72428 45.83276 90.65798 45.5908 89.58461 C 45.348835 88.51123 44.28254 87.83724 43.209166 88.0792 C 43.20194 88.08083 43.20194 88.08083 43.19472 88.08246 C 42.121327 88.32436 41.447273 89.39062 41.689175 90.464 C 41.931077 91.5374 42.99733 92.21145 44.07072 91.96955 Z M 51.42761 89.50828 C 51.432984 89.50679 51.432984 89.50679 51.438356 89.50529 C 52.23629 89.28259 52.70261 88.45521 52.479914 87.65727 C 52.25722 86.85934 51.429834 86.39302 50.6319 86.61571 C 50.626664 86.61718 50.626664 86.61718 50.62143 86.61864 C 49.823474 86.84126 49.357074 87.6686 49.579696 88.46655 C 49.80232 89.26451 50.62966 89.73091 51.42761 89.50828 Z M 58.89997 87.07563 C 58.90524 87.07358 58.90524 87.07358 58.91051 87.07153 C 59.68264 86.77135 60.065224 85.90207 59.76504 85.12994 C 59.46486 84.35782 58.59558 83.97523 57.82345 84.27541 C 57.81848 84.27734 57.81848 84.27734 57.81351 84.27927 C 57.04132 84.57929 56.658546 85.44849 56.958564 86.22068 C 57.25858 86.99288 58.12778 87.37565 58.89997 87.07563 Z" fill="#a0a0a0"/>
            </g>
            <g id="Graphic_13">
              <title>Shape</title>
              <path d="M 5.453277 104.19782 C 5.5464746 104.18671 5.6343244 104.16087 5.714772 104.12289 C 6.0352034 103.97163 6.2382025 103.62794 6.193968 103.25672 C 6.138628 102.79231 5.717285 102.46069 5.2528724 102.51603 C 5.249806 102.5164 5.249806 102.5164 5.24674 102.51676 C 4.7823266 102.57209 4.4506994 102.99343 4.50603 103.45784 C 4.561361 103.92226 4.982697 104.25388 5.4471104 104.19855 C 5.450193 104.19818 5.450193 104.19818 5.453277 104.19782 Z M 13.34859 103.62742 C 13.354091 103.62669 13.354091 103.62669 13.359593 103.62595 C 14.180728 103.51627 14.757476 102.7617 14.647795 101.94056 C 14.538115 101.11943 13.783541 100.54268 12.962407 100.65236 C 12.956935 100.65309 12.956935 100.65309 12.951465 100.65382 C 12.130328 100.76348 11.553565 101.51805 11.663228 102.33918 C 11.77289 103.16032 12.527453 103.73708 13.34859 103.62742 Z M 21.00666 102.54624 C 21.01212 102.54543 21.01212 102.54543 21.01758 102.54461 C 21.836937 102.42237 22.402058 101.65905 22.279813 100.83969 C 22.157568 100.02033 21.394247 99.45521 20.57489 99.57746 C 20.569464 99.57827 20.569464 99.57827 20.56404 99.57907 C 19.744678 99.7013 19.17954 100.46461 19.301765 101.28397 C 19.42399 102.10333 20.187298 102.66847 21.00666 102.54624 Z M 28.822508 101.92017 C 28.82977 101.91896 28.82977 101.91896 28.83703 101.91774 C 29.922252 101.7356 30.654344 100.70819 30.472202 99.62297 C 30.29006 98.53775 29.262658 97.80565 28.177435 97.9878 C 28.17023 97.989 28.17023 97.989 28.163028 97.99021 C 27.0778 98.17232 26.345678 99.19971 26.527788 100.28493 C 26.709898 101.37016 27.73728 102.10229 28.822508 101.92017 Z M 36.472527 100.54954 C 37.55321 100.34226 38.261245 99.29816 38.053965 98.21747 C 37.846685 97.13679 36.802583 96.42876 35.7219 96.63604 C 35.714724 96.63741 35.714724 96.63741 35.70755 96.63879 C 34.626857 96.84603 33.918783 97.8901 34.12602 98.97079 C 34.33326 100.05149 35.377334 100.75956 36.458026 100.55232 C 36.465276 100.55093 36.465276 100.55093 36.472527 100.54954 Z M 43.872387 98.39477 C 43.87791 98.39352 43.87791 98.39352 43.88343 98.39228 C 44.69158 98.2101 45.19903 97.40729 45.016857 96.59914 C 44.83468 95.79099 44.031866 95.28354 43.22372 95.46572 C 43.21828 95.46694 43.21828 95.46694 43.21284 95.46817 C 42.40468 95.6503 41.897183 96.45308 42.07931 97.26124 C 42.26144 98.0694 43.06423 98.5769 43.872387 98.39477 Z M 51.42761 96.50828 C 51.432984 96.50679 51.432984 96.50679 51.438356 96.50529 C 52.23629 96.28259 52.70261 95.4552 52.479914 94.65727 C 52.25722 93.85934 51.429834 93.39302 50.6319 93.61571 C 50.626664 93.61718 50.626664 93.61718 50.62143 93.61864 C 49.823474 93.84126 49.357074 94.6686 49.579696 95.46655 C 49.80232 96.26451 50.62966 96.73091 51.42761 96.50828 Z M 58.41381 93.20875 C 58.416785 93.2076 58.416785 93.2076 58.41976 93.20644 C 58.85569 93.03696 59.0717 92.54617 58.90222 92.11024 C 58.73274 91.6743 58.24195 91.4583 57.80602 91.62778 C 57.80321 91.62887 57.80321 91.62887 57.800406 91.62996 C 57.364436 91.79935 57.14833 92.29009 57.317714 92.72606 C 57.4871 93.16203 57.97784 93.37814 58.41381 93.20875 Z" fill="#a0a0a0"/>
            </g>
          </g>
          <g id="Group_8">
            <title>middle</title>
            <g id="Graphic_11">
              <title>Shape</title>
              <path d="M 5.4471104 56.188556 C 5.450193 56.18819 5.450193 56.18819 5.453277 56.18782 C 5.9176895 56.13248 6.249308 55.71114 6.193968 55.246725 C 6.138628 54.78231 5.717285 54.450694 5.2528724 54.506034 C 5.249806 54.5064 5.249806 54.5064 5.24674 54.506765 C 4.7823266 54.562096 4.4506994 54.98343 4.50603 55.447846 C 4.561361 55.91226 4.982697 56.243886 5.4471104 56.188556 Z M 13.34859 56.03049 C 13.354091 56.02976 13.354091 56.02976 13.359593 56.02902 C 14.180728 55.91934 14.757476 55.16477 14.647795 54.343634 C 14.538115 53.5225 13.783541 52.94575 12.962407 53.05543 C 12.956935 53.05616 12.956935 53.05616 12.951465 53.056894 C 12.130328 53.166557 11.553565 53.92112 11.663228 54.742256 C 11.77289 55.56339 12.527453 56.140156 13.34859 56.03049 Z M 21.00666 54.949315 C 21.01212 54.9485 21.01212 54.9485 21.01758 54.947686 C 21.836937 54.82544 22.402058 54.06212 22.279813 53.24276 C 22.157568 52.423404 21.394247 51.85828 20.57489 51.98053 C 20.569464 51.98134 20.569464 51.98134 20.56404 51.982147 C 19.744678 52.10437 19.17954 52.86768 19.301765 53.68704 C 19.42399 54.5064 20.187298 55.07154 21.00666 54.949315 Z M 28.822508 54.32325 C 28.82977 54.32203 28.82977 54.32203 28.83703 54.32081 C 29.922252 54.13867 30.654344 53.111267 30.472202 52.026043 C 30.29006 50.94082 29.262658 50.20873 28.177435 50.39087 C 28.17023 50.39208 28.17023 50.39208 28.163028 50.39329 C 27.0778 50.5754 26.345678 51.60278 26.527788 52.68801 C 26.709898 53.773236 27.73728 54.50536 28.822508 54.32325 Z M 36.472527 52.95261 C 37.55321 52.74533 38.261245 51.70123 38.053965 50.620546 C 37.846685 49.53986 36.802583 48.83183 35.7219 49.03911 C 35.714724 49.040484 35.714724 49.040484 35.70755 49.04186 C 34.626857 49.2491 33.918783 50.29317 34.12602 51.373865 C 34.33326 52.45456 35.377334 53.16263 36.458026 52.95539 C 36.465276 52.954 36.465276 52.954 36.472527 52.95261 Z M 43.872387 50.79477 C 43.87791 50.793526 43.87791 50.793526 43.88343 50.79228 C 44.69158 50.610107 45.19903 49.80729 45.016857 48.99914 C 44.83468 48.190994 44.031866 47.68354 43.22372 47.86572 C 43.21828 47.866943 43.21828 47.866943 43.21284 47.86817 C 42.40468 48.0503 41.897183 48.853085 42.07931 49.661243 C 42.26144 50.4694 43.06423 50.9769 43.872387 50.79477 Z M 51.42761 48.908286 C 51.432984 48.90679 51.432984 48.90679 51.438356 48.90529 C 52.23629 48.68259 52.70261 47.85521 52.479914 47.057274 C 52.25722 46.25934 51.429834 45.79302 50.6319 46.015716 C 50.626664 46.017177 50.626664 46.017177 50.62143 46.01864 C 49.823474 46.24126 49.357074 47.0686 49.579696 47.866554 C 49.80232 48.66451 50.62966 49.13091 51.42761 48.908286 Z M 58.41976 46.20644 C 58.85569 46.03696 59.0717 45.546176 58.90222 45.11024 C 58.73274 44.674307 58.24195 44.458303 57.80602 44.627783 C 57.80321 44.628874 57.80321 44.628874 57.800406 44.629964 C 57.364436 44.79935 57.14833 45.29009 57.317714 45.72606 C 57.4871 46.16203 57.97784 46.37814 58.41381 46.208753 C 58.416785 46.207597 58.416785 46.207597 58.41976 46.20644 Z" fill="#a0a0a0"/>
            </g>
            <g id="Graphic_10">
              <title>Shape</title>
              <path d="M 5.6776035 63.996505 C 5.683064 63.995854 5.683064 63.995854 5.6885264 63.9952 C 6.511134 63.89718 7.098525 63.15086 7.000502 62.328254 C 6.9024785 61.50565 6.15616 60.918255 5.3335525 61.01628 C 5.3281205 61.016926 5.3281205 61.016926 5.3226906 61.01757 C 4.500081 61.11558 3.9126745 61.861886 4.010681 62.684495 C 4.1086875 63.507105 4.854994 64.09451 5.6776035 63.996505 Z M 13.34859 63.02742 C 13.354091 63.02669 13.354091 63.02669 13.359593 63.02595 C 14.180728 62.91627 14.757476 62.1617 14.647795 61.340564 C 14.538115 60.51943 13.783541 59.94268 12.962407 60.05236 C 12.956935 60.05309 12.956935 60.05309 12.951465 60.05382 C 12.130328 60.16349 11.553565 60.91805 11.663228 61.739186 C 11.77289 62.56032 12.527453 63.137086 13.34859 63.02742 Z M 21.176743 62.525625 C 21.183996 62.52454 21.183996 62.52454 21.191249 62.52346 C 22.27963 62.36108 23.0303 61.347134 22.867917 60.25875 C 22.705535 59.17037 21.69159 58.4197 20.60321 58.582084 C 20.596002 58.58316 20.596002 58.58316 20.588796 58.584234 C 19.500411 58.74659 18.749717 59.76052 18.912074 60.8489 C 19.074431 61.93729 20.088358 62.68798 21.176743 62.525625 Z M 28.83703 61.31774 C 29.922252 61.1356 30.654344 60.108196 30.472202 59.02297 C 30.29006 57.93775 29.262658 57.20566 28.177435 57.3878 C 28.17023 57.38901 28.17023 57.38901 28.163028 57.390216 C 27.0778 57.57233 26.345678 58.59971 26.527788 59.68494 C 26.709898 60.770165 27.73728 61.50229 28.822508 61.32018 C 28.82977 61.31896 28.82977 61.31896 28.83703 61.31774 Z M 36.472526 59.96109 C 37.55321 59.7532 38.261245 58.70605 38.053965 57.622204 C 37.846685 56.53836 36.802583 55.82826 35.7219 56.03614 C 35.714724 56.037523 35.714724 56.037523 35.70755 56.0389 C 34.626857 56.24675 33.918783 57.293874 34.12602 58.377725 C 34.33326 59.46158 35.377334 60.17172 36.458026 59.963876 C 36.465276 59.96248 36.465276 59.96248 36.472526 59.96109 Z M 44.07072 58.36955 C 44.078057 58.3679 44.078057 58.3679 44.08539 58.36624 C 45.15877 58.12428 45.83276 57.05799 45.5908 55.98461 C 45.348835 54.911234 44.28254 54.23724 43.209166 54.479204 C 43.20194 54.48083 43.20194 54.48083 43.19472 54.48246 C 42.121327 54.72436 41.447273 55.79062 41.689175 56.86401 C 41.931077 57.9374 42.99733 58.61145 44.07072 58.36955 Z M 51.42761 55.908286 C 51.432984 55.90679 51.432984 55.90679 51.438356 55.90529 C 52.23629 55.68259 52.70261 54.85521 52.479914 54.057274 C 52.25722 53.25934 51.429834 52.79302 50.6319 53.015716 C 50.626664 53.01718 50.626664 53.01718 50.62143 53.01864 C 49.823474 53.24126 49.357074 54.0686 49.579696 54.866554 C 49.80232 55.66451 50.62966 56.13091 51.42761 55.908286 Z M 58.89997 53.47563 C 58.90524 53.473584 58.90524 53.473584 58.91051 53.471536 C 59.68264 53.171353 60.065224 52.302073 59.76504 51.529945 C 59.46486 50.75782 58.59558 50.37523 57.82345 50.675414 C 57.81848 50.677345 57.81848 50.677345 57.81351 50.679277 C 57.04132 50.979295 56.658546 51.848493 56.958564 52.620685 C 57.25858 53.39288 58.12778 53.77565 58.89997 53.47563 Z" fill="#a0a0a0"/>
            </g>
            <g id="Graphic_9">
              <title>Shape</title>
              <path d="M 5.453277 70.59782 C 5.5464746 70.58671 5.6343244 70.56087 5.714772 70.52289 C 6.0352034 70.371635 6.2382025 70.02794 6.193968 69.65672 C 6.138628 69.19231 5.717285 68.86069 5.2528724 68.91603 C 5.249806 68.9164 5.249806 68.9164 5.24674 68.91676 C 4.7823266 68.97209 4.4506994 69.39343 4.50603 69.85784 C 4.561361 70.32226 4.982697 70.653884 5.4471104 70.59855 C 5.450193 70.59819 5.450193 70.59819 5.453277 70.59782 Z M 13.34859 70.02742 C 13.354091 70.02669 13.354091 70.02669 13.359593 70.02595 C 14.180728 69.91627 14.757476 69.1617 14.647795 68.340564 C 14.538115 67.51943 13.783541 66.94268 12.962407 67.05236 C 12.956935 67.05309 12.956935 67.05309 12.951465 67.05382 C 12.130328 67.16349 11.553565 67.91805 11.663228 68.739185 C 11.77289 69.56032 12.527453 70.137086 13.34859 70.02742 Z M 21.00666 68.946245 C 21.01212 68.94543 21.01212 68.94543 21.01758 68.944616 C 21.836937 68.82237 22.402058 68.05905 22.279813 67.23969 C 22.157568 66.42033 21.394247 65.85521 20.57489 65.97746 C 20.569464 65.97827 20.569464 65.97827 20.56404 65.97908 C 19.744678 66.1013 19.17954 66.86461 19.301765 67.68397 C 19.42399 68.50333 20.187298 69.06847 21.00666 68.946245 Z M 28.822508 68.32018 C 28.82977 68.31896 28.82977 68.31896 28.83703 68.31774 C 29.922252 68.1356 30.654344 67.108196 30.472202 66.02297 C 30.29006 64.93775 29.262658 64.20566 28.177435 64.3878 C 28.17023 64.38901 28.17023 64.38901 28.163028 64.39022 C 27.0778 64.57233 26.345678 65.59971 26.527788 66.68494 C 26.709898 67.770165 27.73728 68.50229 28.822508 68.32018 Z M 36.472527 66.94954 C 37.55321 66.74226 38.261245 65.69816 38.053965 64.617476 C 37.846685 63.53679 36.802583 62.82876 35.7219 63.03604 C 35.714724 63.037414 35.714724 63.037414 35.70755 63.03879 C 34.626857 63.24603 33.918783 64.2901 34.12602 65.370795 C 34.33326 66.45149 35.377334 67.15956 36.458026 66.95232 C 36.465276 66.95093 36.465276 66.95093 36.472527 66.94954 Z M 43.872387 64.79477 C 43.87791 64.79353 43.87791 64.79353 43.88343 64.79228 C 44.69158 64.61011 45.19903 63.80729 45.016857 62.99914 C 44.83468 62.190994 44.031866 61.68354 43.22372 61.86572 C 43.21828 61.86694 43.21828 61.86694 43.21284 61.86817 C 42.40468 62.0503 41.897183 62.853085 42.07931 63.66124 C 42.26144 64.4694 43.06423 64.9769 43.872387 64.79477 Z M 51.42761 62.90829 C 51.432984 62.90679 51.432984 62.90679 51.438356 62.90529 C 52.23629 62.68259 52.70261 61.85521 52.479914 61.057274 C 52.25722 60.25934 51.429834 59.79302 50.6319 60.015716 C 50.626664 60.01718 50.626664 60.01718 50.62143 60.01864 C 49.823474 60.24126 49.357074 61.0686 49.579696 61.866554 C 49.80232 62.66451 50.62966 63.13091 51.42761 62.90829 Z M 58.41381 59.60875 C 58.416785 59.6076 58.416785 59.6076 58.41976 59.60644 C 58.85569 59.43696 59.0717 58.946175 58.90222 58.51024 C 58.73274 58.07431 58.24195 57.8583 57.80602 58.02778 C 57.80321 58.02887 57.80321 58.02887 57.800406 58.029964 C 57.364436 58.19935 57.14833 58.69009 57.317714 59.12606 C 57.4871 59.56203 57.97784 59.77814 58.41381 59.60875 Z" fill="#a0a0a0"/>
            </g>
          </g>
          <g id="Group_4">
            <title>top</title>
            <g id="Graphic_7">
              <title>Shape</title>
              <path d="M 5.4471104 22.288554 C 5.450193 22.288186 5.450193 22.288186 5.453277 22.28782 C 5.9176895 22.23248 6.249308 21.811136 6.193968 21.346723 C 6.138628 20.88231 5.717285 20.550692 5.2528724 20.606032 C 5.249806 20.606398 5.249806 20.606398 5.24674 20.606763 C 4.7823266 20.662094 4.4506994 21.08343 4.50603 21.547844 C 4.561361 22.012257 4.982697 22.343884 5.4471104 22.288554 Z M 13.34859 22.13049 C 13.354091 22.129756 13.354091 22.129756 13.359593 22.12902 C 14.180728 22.01934 14.757476 21.264767 14.647795 20.443632 C 14.538115 19.622498 13.783541 19.04575 12.962407 19.15543 C 12.956935 19.15616 12.956935 19.15616 12.951465 19.156892 C 12.130328 19.266555 11.553565 20.021117 11.663228 20.842254 C 11.77289 21.66339 12.527453 22.240154 13.34859 22.13049 Z M 21.00666 21.049313 C 21.01212 21.048498 21.01212 21.048498 21.01758 21.047684 C 21.836937 20.925438 22.402058 20.162118 22.279813 19.34276 C 22.157568 18.523402 21.394247 17.95828 20.57489 18.080526 C 20.569464 18.081335 20.569464 18.081335 20.56404 18.082145 C 19.744678 18.20437 19.17954 18.967678 19.301765 19.787039 C 19.42399 20.6064 20.187298 21.17154 21.00666 21.049313 Z M 28.822508 20.423246 C 28.82977 20.422028 28.82977 20.422028 28.83703 20.42081 C 29.922252 20.238667 30.654344 19.211265 30.472202 18.126041 C 30.29006 17.040818 29.262658 16.308726 28.177435 16.490868 C 28.17023 16.492077 28.17023 16.492077 28.163028 16.493286 C 27.0778 16.675396 26.345678 17.702777 26.527788 18.788006 C 26.709898 19.873234 27.73728 20.605356 28.822508 20.423246 Z M 36.472527 19.05261 C 37.55321 18.84533 38.261245 17.801228 38.053965 16.720544 C 37.846685 15.63986 36.802583 14.931826 35.7219 15.139106 C 35.714724 15.140482 35.714724 15.140482 35.70755 15.141858 C 34.626857 15.349097 33.918783 16.39317 34.12602 17.473863 C 34.33326 18.554555 35.377334 19.26263 36.458026 19.05539 C 36.465276 19.054 36.465276 19.054 36.472527 19.05261 Z M 43.872387 16.894769 C 43.87791 16.893524 43.87791 16.893524 43.88343 16.89228 C 44.69158 16.710105 45.19903 15.90729 45.016857 15.09914 C 44.83468 14.290992 44.031866 13.78354 43.22372 13.965715 C 43.21828 13.966941 43.21828 13.966941 43.21284 13.968167 C 42.40468 14.150296 41.897183 14.953083 42.07931 15.761241 C 42.26144 16.5694 43.06423 17.076898 43.872387 16.894769 Z M 51.42761 15.008284 C 51.432984 15.006785 51.432984 15.006785 51.438356 15.005286 C 52.23629 14.78259 52.70261 13.955206 52.479914 13.157272 C 52.25722 12.359339 51.429834 11.893017 50.6319 12.115714 C 50.626664 12.117175 50.626664 12.117175 50.62143 12.118636 C 49.823474 12.341258 49.357074 13.168598 49.579696 13.966552 C 49.80232 14.764507 50.62966 15.230906 51.42761 15.008284 Z M 58.41976 12.306439 C 58.85569 12.136959 59.0717 11.646174 58.90222 11.21024 C 58.73274 10.774305 58.24195 10.558301 57.80602 10.727781 C 57.80321 10.728872 57.80321 10.728872 57.800406 10.729962 C 57.364436 10.899349 57.14833 11.390088 57.317714 11.826058 C 57.4871 12.262029 57.97784 12.478138 58.41381 12.308751 C 58.416785 12.307595 58.416785 12.307595 58.41976 12.306439 Z" fill="#a0a0a0"/>
            </g>
            <g id="Graphic_6">
              <title>Shape</title>
              <path d="M 5.6776035 30.096503 C 5.683064 30.095852 5.683064 30.095852 5.6885264 30.0952 C 6.511134 29.997178 7.098525 29.25086 7.000502 28.428252 C 6.9024785 27.605645 6.15616 27.018253 5.3335525 27.116277 C 5.3281205 27.116924 5.3281205 27.116924 5.3226906 27.11757 C 4.500081 27.215577 3.9126745 27.961884 4.010681 28.784493 C 4.1086875 29.607103 4.854994 30.19451 5.6776035 30.096503 Z M 13.34859 29.12742 C 13.354091 29.126686 13.354091 29.126686 13.359593 29.12595 C 14.180728 29.01627 14.757476 28.261697 14.647795 27.440562 C 14.538115 26.619428 13.783541 26.04268 12.962407 26.15236 C 12.956935 26.15309 12.956935 26.15309 12.951465 26.15382 C 12.130328 26.263485 11.553565 27.018047 11.663228 27.839184 C 11.77289 28.66032 12.527453 29.237084 13.34859 29.12742 Z M 21.176743 28.625623 C 21.183996 28.62454 21.183996 28.62454 21.191249 28.62346 C 22.27963 28.461077 23.0303 27.447132 22.867917 26.35875 C 22.705535 25.27037 21.69159 24.5197 20.60321 24.682082 C 20.596002 24.683157 20.596002 24.683157 20.588796 24.684232 C 19.500411 24.84659 18.749717 25.860516 18.912074 26.9489 C 19.074431 28.037286 20.088358 28.78798 21.176743 28.625623 Z M 28.83703 27.417738 C 29.922252 27.235596 30.654344 26.208194 30.472202 25.12297 C 30.29006 24.037747 29.262658 23.305655 28.177435 23.487797 C 28.17023 23.489006 28.17023 23.489006 28.163028 23.490214 C 27.0778 23.672325 26.345678 24.699706 26.527788 25.784935 C 26.709898 26.870163 27.73728 27.602285 28.822508 27.420175 C 28.82977 27.418956 28.82977 27.418956 28.83703 27.417738 Z M 36.472526 26.061085 C 37.55321 25.8532 38.261245 24.806046 38.053965 23.722202 C 37.846685 22.63836 36.802583 21.928255 35.7219 22.13614 C 35.714724 22.137521 35.714724 22.137521 35.70755 22.1389 C 34.626857 22.346746 33.918783 23.393872 34.12602 24.477723 C 34.33326 25.561574 35.377334 26.27172 36.458026 26.063874 C 36.465276 26.06248 36.465276 26.06248 36.472526 26.061085 Z M 44.07072 24.469548 C 44.078057 24.467895 44.078057 24.467895 44.08539 24.46624 C 45.15877 24.224278 45.83276 23.157985 45.5908 22.084608 C 45.348835 21.011232 44.28254 20.337238 43.209166 20.579202 C 43.20194 20.58083 43.20194 20.58083 43.19472 20.582458 C 42.121327 20.82436 41.447273 21.890615 41.689175 22.964005 C 41.931077 24.037396 42.99733 24.71145 44.07072 24.469548 Z M 51.42761 22.008285 C 51.432984 22.006786 51.432984 22.006786 51.438356 22.005286 C 52.23629 21.78259 52.70261 20.955206 52.479914 20.157272 C 52.25722 19.359339 51.429834 18.893017 50.6319 19.115714 C 50.626664 19.117175 50.626664 19.117175 50.62143 19.118636 C 49.823474 19.341258 49.357074 20.168598 49.579696 20.966552 C 49.80232 21.764507 50.62966 22.230906 51.42761 22.008285 Z M 58.89997 19.57563 C 58.90524 19.573582 58.90524 19.573582 58.91051 19.571534 C 59.68264 19.271351 60.065224 18.402071 59.76504 17.629943 C 59.46486 16.857815 58.59558 16.475229 57.82345 16.775412 C 57.81848 16.777343 57.81848 16.777343 57.81351 16.779275 C 57.04132 17.079293 56.658546 17.948491 56.958564 18.720683 C 57.25858 19.492875 58.12778 19.875648 58.89997 19.57563 Z" fill="#a0a0a0"/>
            </g>
            <g id="Graphic_5">
              <title>Shape</title>
              <path d="M 5.453277 36.697817 C 5.5464746 36.68671 5.6343244 36.660866 5.714772 36.62289 C 6.0352034 36.471633 6.2382025 36.127936 6.193968 35.75672 C 6.138628 35.29231 5.717285 34.96069 5.2528724 35.01603 C 5.249806 35.016396 5.249806 35.016396 5.24674 35.01676 C 4.7823266 35.07209 4.4506994 35.493428 4.50603 35.95784 C 4.561361 36.422255 4.982697 36.753882 5.4471104 36.69855 C 5.450193 36.698184 5.450193 36.698184 5.453277 36.697817 Z M 13.34859 36.12742 C 13.354091 36.126686 13.354091 36.126686 13.359593 36.12595 C 14.180728 36.01627 14.757476 35.261697 14.647795 34.440562 C 14.538115 33.619428 13.783541 33.04268 12.962407 33.15236 C 12.956935 33.15309 12.956935 33.15309 12.951465 33.15382 C 12.130328 33.263484 11.553565 34.018047 11.663228 34.839184 C 11.77289 35.66032 12.527453 36.237084 13.34859 36.12742 Z M 21.00666 35.046243 C 21.01212 35.04543 21.01212 35.04543 21.01758 35.044614 C 21.836937 34.92237 22.402058 34.159048 22.279813 33.33969 C 22.157568 32.52033 21.394247 31.95521 20.57489 32.077456 C 20.569464 32.078265 20.569464 32.078265 20.56404 32.079074 C 19.744678 32.2013 19.17954 32.964608 19.301765 33.78397 C 19.42399 34.60333 20.187298 35.16847 21.00666 35.046243 Z M 28.822508 34.420175 C 28.82977 34.418956 28.82977 34.418956 28.83703 34.417738 C 29.922252 34.235596 30.654344 33.208194 30.472202 32.12297 C 30.29006 31.037747 29.262658 30.305655 28.177435 30.487797 C 28.17023 30.489006 28.17023 30.489006 28.163028 30.490214 C 27.0778 30.672325 26.345678 31.699706 26.527788 32.784935 C 26.709898 33.870163 27.73728 34.602285 28.822508 34.420175 Z M 36.472527 33.04954 C 37.55321 32.84226 38.261245 31.79816 38.053965 30.717474 C 37.846685 29.63679 36.802583 28.928756 35.7219 29.136036 C 35.714724 29.137412 35.714724 29.137412 35.70755 29.138788 C 34.626857 29.346026 33.918783 30.3901 34.12602 31.470793 C 34.33326 32.551485 35.377334 33.25956 36.458026 33.05232 C 36.465276 33.05093 36.465276 33.05093 36.472527 33.04954 Z M 43.872387 30.89477 C 43.87791 30.893524 43.87791 30.893524 43.88343 30.89228 C 44.69158 30.710105 45.19903 29.90729 45.016857 29.09914 C 44.83468 28.290992 44.031866 27.78354 43.22372 27.965715 C 43.21828 27.96694 43.21828 27.96694 43.21284 27.968167 C 42.40468 28.150296 41.897183 28.953083 42.07931 29.76124 C 42.26144 30.5694 43.06423 31.076898 43.872387 30.89477 Z M 51.42761 29.008284 C 51.432984 29.006785 51.432984 29.006785 51.438356 29.005286 C 52.23629 28.78259 52.70261 27.955206 52.479914 27.157272 C 52.25722 26.35934 51.429834 25.893017 50.6319 26.115714 C 50.626664 26.117175 50.626664 26.117175 50.62143 26.118636 C 49.823474 26.341258 49.357074 27.168598 49.579696 27.966552 C 49.80232 28.764507 50.62966 29.230906 51.42761 29.008284 Z M 58.41381 25.70875 C 58.416785 25.707594 58.416785 25.707594 58.41976 25.706438 C 58.85569 25.53696 59.0717 25.046173 58.90222 24.61024 C 58.73274 24.174305 58.24195 23.9583 57.80602 24.12778 C 57.80321 24.12887 57.80321 24.12887 57.800406 24.129962 C 57.364436 24.299348 57.14833 24.790087 57.317714 25.226058 C 57.4871 25.662028 57.97784 25.878137 58.41381 25.70875 Z" fill="#a0a0a0"/>
            </g>
          </g>
        </g>
      </g>
    </g>
  </g>
</svg>
